<svg xmlns="http://www.w3.org/2000/svg" xmlns:xlink="http://www.w3.org/1999/xlink" width="1080" zoomAndPan="magnify" viewBox="0 0 810 809.999993" height="1080" preserveAspectRatio="xMidYMid meet" version="1.0"><defs><g/></defs><g fill="#ffffff" fill-opacity="1"><g transform="translate(6.4043, 477.071833)"><g><path d="M 67.765625 -68.796875 C 68.835938 -68.796875 69.375 -68.359375 69.375 -67.484375 L 69.375 -49.046875 C 69.375 -48.179688 68.835938 -47.75 67.765625 -47.75 L 22.203125 -47.75 L 22.203125 0 L 1.59375 0 C 0.53125 0 0 -0.4375 0 -1.3125 L 0 -114.796875 C 0 -115.660156 0.53125 -116.09375 1.59375 -116.09375 L 55.140625 -116.09375 L 55.140625 -95.0625 L 22.203125 -95.0625 L 22.203125 -68.796875 Z M 67.765625 -68.796875 "/></g></g></g><g fill="#ffffff" fill-opacity="1"><g transform="translate(79.257064, 477.071833)"><g><path d="M 66.75 -57.765625 C 66.75 -54.765625 65.707031 -52.195312 63.625 -50.0625 C 61.550781 -47.9375 58.96875 -46.875 55.875 -46.875 C 52.875 -46.875 50.304688 -47.9375 48.171875 -50.0625 C 46.046875 -52.195312 44.984375 -54.765625 44.984375 -57.765625 C 44.984375 -60.859375 46.046875 -63.46875 48.171875 -65.59375 C 50.304688 -67.726562 52.875 -68.796875 55.875 -68.796875 C 58.96875 -68.796875 61.550781 -67.726562 63.625 -65.59375 C 65.707031 -63.46875 66.75 -60.859375 66.75 -57.765625 Z M 111.75 -58.1875 C 111.75 -50.9375 110.585938 -43.851562 108.265625 -36.9375 C 105.941406 -30.019531 102.457031 -23.78125 97.8125 -18.21875 C 93.164062 -12.65625 87.359375 -8.226562 80.390625 -4.9375 C 73.429688 -1.644531 65.304688 0 56.015625 0 C 46.628906 0 38.425781 -1.644531 31.40625 -4.9375 C 24.394531 -8.226562 18.566406 -12.65625 13.921875 -18.21875 C 9.285156 -23.78125 5.804688 -30.019531 3.484375 -36.9375 C 1.160156 -43.851562 0 -50.9375 0 -58.1875 C 0 -65.445312 1.160156 -72.507812 3.484375 -79.375 C 5.804688 -86.25 9.285156 -92.441406 13.921875 -97.953125 C 18.566406 -103.472656 24.394531 -107.875 31.40625 -111.15625 C 38.425781 -114.445312 46.628906 -116.09375 56.015625 -116.09375 C 65.304688 -116.09375 73.429688 -114.445312 80.390625 -111.15625 C 87.359375 -107.875 93.164062 -103.472656 97.8125 -97.953125 C 102.457031 -92.441406 105.941406 -86.25 108.265625 -79.375 C 110.585938 -72.507812 111.75 -65.445312 111.75 -58.1875 Z M 89.984375 -57.765625 C 89.984375 -62.503906 89.253906 -67.125 87.796875 -71.625 C 86.347656 -76.125 84.21875 -80.1875 81.40625 -83.8125 C 78.601562 -87.4375 75.070312 -90.3125 70.8125 -92.4375 C 66.5625 -94.570312 61.628906 -95.640625 56.015625 -95.640625 C 50.304688 -95.640625 45.320312 -94.570312 41.0625 -92.4375 C 36.8125 -90.3125 33.257812 -87.4375 30.40625 -83.8125 C 27.550781 -80.1875 25.421875 -76.125 24.015625 -71.625 C 22.609375 -67.125 21.90625 -62.503906 21.90625 -57.765625 C 21.90625 -53.117188 22.609375 -48.566406 24.015625 -44.109375 C 25.421875 -39.660156 27.550781 -35.644531 30.40625 -32.0625 C 33.257812 -28.488281 36.8125 -25.632812 41.0625 -23.5 C 45.320312 -21.375 50.304688 -20.3125 56.015625 -20.3125 C 61.628906 -20.3125 66.5625 -21.375 70.8125 -23.5 C 75.070312 -25.632812 78.601562 -28.488281 81.40625 -32.0625 C 84.21875 -35.644531 86.347656 -39.660156 87.796875 -44.109375 C 89.253906 -48.566406 89.984375 -53.117188 89.984375 -57.765625 Z M 89.984375 -57.765625 "/></g></g></g><g fill="#ffffff" fill-opacity="1"><g transform="translate(196.518087, 477.071833)"><g><path d="M 79.234375 -1.890625 C 79.429688 -1.398438 79.40625 -0.960938 79.15625 -0.578125 C 78.914062 -0.191406 78.507812 0 77.9375 0 L 57.171875 0 C 56.398438 0 55.921875 -0.289062 55.734375 -0.875 L 34.546875 -46.875 L 22.0625 -46.875 L 22.0625 -1.3125 C 22.0625 -0.4375 21.53125 0 20.46875 0 L 1.453125 0 C 0.484375 0 0 -0.4375 0 -1.3125 L 0 -68.203125 L 39.03125 -68.203125 C 40.195312 -68.203125 41.742188 -68.300781 43.671875 -68.5 C 45.609375 -68.695312 47.519531 -69.226562 49.40625 -70.09375 C 51.300781 -70.96875 52.898438 -72.296875 54.203125 -74.078125 C 55.503906 -75.867188 56.15625 -78.363281 56.15625 -81.5625 C 56.15625 -84.75 55.453125 -87.257812 54.046875 -89.09375 C 52.648438 -90.9375 50.9375 -92.269531 48.90625 -93.09375 C 46.875 -93.914062 44.9375 -94.445312 43.09375 -94.6875 C 41.257812 -94.9375 39.90625 -95.0625 39.03125 -95.0625 L 0 -95.0625 L 0 -114.796875 C 0 -115.660156 0.484375 -116.09375 1.453125 -116.09375 L 39.03125 -116.09375 C 40.394531 -116.09375 42.570312 -115.972656 45.5625 -115.734375 C 48.5625 -115.492188 51.925781 -114.84375 55.65625 -113.78125 C 59.382812 -112.71875 62.960938 -110.972656 66.390625 -108.546875 C 69.828125 -106.128906 72.65625 -102.742188 74.875 -98.390625 C 77.101562 -94.035156 78.21875 -88.425781 78.21875 -81.5625 C 78.21875 -75.65625 77.25 -70.644531 75.3125 -66.53125 C 73.382812 -62.425781 70.796875 -59.066406 67.546875 -56.453125 C 64.304688 -53.835938 60.753906 -51.804688 56.890625 -50.359375 C 60.566406 -42.128906 64.316406 -34 68.140625 -25.96875 C 71.960938 -17.945312 75.660156 -9.921875 79.234375 -1.890625 Z M 79.234375 -1.890625 "/></g></g></g><g fill="#ffffff" fill-opacity="1"><g transform="translate(279.964978, 477.071833)"><g><path d="M 55.140625 -21.625 L 55.140625 0 L 1.59375 0 C 0.53125 0 0 -0.4375 0 -1.3125 L 0 -114.796875 C 0 -115.660156 0.53125 -116.09375 1.59375 -116.09375 L 55.140625 -116.09375 L 55.140625 -95.0625 L 22.203125 -95.0625 L 22.203125 -68.796875 L 67.765625 -68.796875 C 68.835938 -68.796875 69.375 -68.359375 69.375 -67.484375 L 69.375 -49.046875 C 69.375 -48.179688 68.835938 -47.75 67.765625 -47.75 L 22.203125 -47.75 L 22.203125 -21.625 Z M 55.140625 -21.625 "/></g></g></g><g fill="#ffffff" fill-opacity="1"><g transform="translate(352.817742, 477.071833)"><g><path d="M 66.328125 -21.328125 L 88.53125 -21.328125 L 88.53125 -1.3125 C 88.53125 -0.4375 88 0 86.9375 0 L 68.0625 0 C 62.257812 0 56.210938 -0.429688 49.921875 -1.296875 C 43.628906 -2.171875 37.53125 -3.789062 31.625 -6.15625 C 25.726562 -8.53125 20.382812 -11.867188 15.59375 -16.171875 C 10.8125 -20.484375 7.015625 -26.050781 4.203125 -32.875 C 1.398438 -39.695312 0 -48.085938 0 -58.046875 C 0 -68.304688 1.425781 -76.914062 4.28125 -83.875 C 7.132812 -90.84375 10.957031 -96.457031 15.75 -100.71875 C 20.539062 -104.976562 25.910156 -108.21875 31.859375 -110.4375 C 37.804688 -112.664062 43.898438 -114.164062 50.140625 -114.9375 C 56.378906 -115.707031 62.351562 -116.09375 68.0625 -116.09375 L 86.9375 -116.09375 C 88 -116.09375 88.53125 -115.660156 88.53125 -114.796875 L 88.53125 -69.21875 L 66.328125 -69.21875 L 66.328125 -94.90625 C 57.910156 -95.394531 50.382812 -94.453125 43.75 -92.078125 C 37.125 -89.710938 31.898438 -85.75 28.078125 -80.1875 C 24.253906 -74.625 22.34375 -67.242188 22.34375 -58.046875 C 22.34375 -50.890625 23.382812 -44.988281 25.46875 -40.34375 C 27.550781 -35.695312 30.304688 -32.066406 33.734375 -29.453125 C 37.171875 -26.847656 40.875 -24.9375 44.84375 -23.71875 C 48.8125 -22.507812 52.679688 -21.785156 56.453125 -21.546875 C 60.222656 -21.304688 63.515625 -21.234375 66.328125 -21.328125 Z M 66.328125 -21.328125 "/></g></g></g><g fill="#ffffff" fill-opacity="1"><g transform="translate(445.842892, 477.071833)"><g><path d="M 91.140625 -1.734375 C 91.328125 -1.347656 91.273438 -0.960938 90.984375 -0.578125 C 90.703125 -0.191406 90.316406 0 89.828125 0 L 69.8125 0 C 69.132812 0 68.695312 -0.289062 68.5 -0.875 L 45.5625 -65.59375 L 22.9375 -0.875 C 22.832031 -0.289062 22.347656 0 21.484375 0 L 1.59375 0 C 0.914062 0 0.457031 -0.191406 0.21875 -0.578125 C -0.0195312 -0.960938 -0.046875 -1.347656 0.140625 -1.734375 L 44.125 -115.234375 C 44.3125 -115.804688 44.789062 -116.09375 45.5625 -116.09375 C 46.34375 -116.09375 46.828125 -115.804688 47.015625 -115.234375 Z M 91.140625 -1.734375 "/></g></g></g><g fill="#ffffff" fill-opacity="1"><g transform="translate(541.625404, 477.071833)"><g><path d="M 53.265625 -64.4375 C 59.359375 -61.632812 64.023438 -57.546875 67.265625 -52.171875 C 70.503906 -46.804688 72.125 -40.6875 72.125 -33.8125 C 72.125 -26.5625 70.40625 -20.421875 66.96875 -15.390625 C 63.539062 -10.359375 59.09375 -6.535156 53.625 -3.921875 C 48.15625 -1.304688 42.328125 0 36.140625 0 C 36.140625 0 36.085938 0 35.984375 0 L 35.984375 -20.890625 C 36.085938 -20.890625 36.140625 -20.890625 36.140625 -20.890625 C 40.003906 -20.890625 43.390625 -22.078125 46.296875 -24.453125 C 49.203125 -26.828125 50.65625 -29.945312 50.65625 -33.8125 C 50.65625 -36.71875 49.90625 -39.1875 48.40625 -41.21875 C 46.90625 -43.25 45.039062 -44.84375 42.8125 -46 C 40.582031 -47.164062 38.359375 -47.796875 36.140625 -47.890625 C 35.648438 -47.890625 33.710938 -48.054688 30.328125 -48.390625 C 26.941406 -48.734375 23.117188 -49.875 18.859375 -51.8125 C 12.867188 -54.613281 8.226562 -58.503906 4.9375 -63.484375 C 1.644531 -68.472656 0 -74.351562 0 -81.125 C 0 -88.382812 1.710938 -94.625 5.140625 -99.84375 C 8.578125 -105.070312 13.050781 -109.085938 18.5625 -111.890625 C 24.082031 -114.691406 29.941406 -116.09375 36.140625 -116.09375 C 42.816406 -116.09375 48.8125 -114.710938 54.125 -111.953125 C 59.445312 -109.203125 63.679688 -105.332031 66.828125 -100.34375 C 69.972656 -95.363281 71.59375 -89.585938 71.6875 -83.015625 C 71.789062 -82.816406 71.671875 -82.570312 71.328125 -82.28125 C 70.992188 -81.988281 70.582031 -81.84375 70.09375 -81.84375 L 51.953125 -81.84375 C 51.566406 -81.84375 51.203125 -81.988281 50.859375 -82.28125 C 50.523438 -82.570312 50.359375 -82.816406 50.359375 -83.015625 C 50.265625 -87.171875 48.8125 -90.238281 46 -92.21875 C 43.195312 -94.207031 39.910156 -95.203125 36.140625 -95.203125 C 32.171875 -95.203125 28.757812 -94.015625 25.90625 -91.640625 C 23.050781 -89.273438 21.625 -85.769531 21.625 -81.125 C 21.625 -76.96875 23.125 -73.800781 26.125 -71.625 C 29.125 -69.445312 32.460938 -68.359375 36.140625 -68.359375 C 36.429688 -68.359375 37.394531 -68.304688 39.03125 -68.203125 C 40.675781 -68.109375 42.78125 -67.796875 45.34375 -67.265625 C 47.914062 -66.734375 50.554688 -65.789062 53.265625 -64.4375 Z M 53.265625 -64.4375 "/></g></g></g><g fill="#ffffff" fill-opacity="1"><g transform="translate(617.380664, 477.071833)"><g><path d="M 23.953125 -74.015625 L 46 -74.015625 L 46 -1.3125 C 46 -0.4375 45.421875 0 44.265625 0 L 25.546875 0 C 24.484375 0 23.953125 -0.4375 23.953125 -1.3125 Z M 1.59375 -96.21875 C 0.53125 -96.21875 0 -96.65625 0 -97.53125 L 0 -114.796875 C 0 -115.660156 0.53125 -116.09375 1.59375 -116.09375 L 68.203125 -116.09375 C 69.273438 -116.09375 69.8125 -115.660156 69.8125 -114.796875 L 69.8125 -97.53125 C 69.8125 -96.65625 69.273438 -96.21875 68.203125 -96.21875 Z M 1.59375 -96.21875 "/></g></g></g><g fill="#ff914d" fill-opacity="1"><g transform="translate(690.673801, 477.071833)"><g><path d="M 105.796875 -116.09375 C 106.566406 -116.09375 107.097656 -115.851562 107.390625 -115.375 C 107.679688 -114.894531 107.632812 -114.410156 107.25 -113.921875 L 67.1875 -58.046875 C 71.445312 -52.148438 75.726562 -46.203125 80.03125 -40.203125 C 84.34375 -34.203125 88.625 -28.203125 92.875 -22.203125 L 65.890625 -22.203125 L 53.84375 -39.1875 L 26.125 -0.4375 C 26.03125 -0.34375 25.835938 -0.242188 25.546875 -0.140625 C 25.253906 -0.046875 25.007812 0 24.8125 0 L 1.59375 0 C 0.914062 0 0.457031 -0.238281 0.21875 -0.71875 C -0.0195312 -1.207031 0.0507812 -1.691406 0.4375 -2.171875 L 40.203125 -58.046875 C 35.941406 -63.953125 31.679688 -69.898438 27.421875 -75.890625 C 23.171875 -81.890625 18.914062 -87.890625 14.65625 -93.890625 L 41.65625 -93.890625 L 53.84375 -76.921875 L 81.265625 -115.671875 C 81.367188 -115.859375 81.585938 -115.972656 81.921875 -116.015625 C 82.265625 -116.066406 82.484375 -116.09375 82.578125 -116.09375 Z M 105.796875 -116.09375 "/></g></g></g></svg>