<svg fill="none" height="21" viewBox="0 0 20 21" width="20" xmlns="http://www.w3.org/2000/svg"><path clip-rule="evenodd" d="m13.3974 15.3478c-1.2018.9715-2.7317 1.5533-4.3974 1.5533-3.86599 0-7-3.134-7-6.99998 0-3.86599 3.13401-7 7-7 3.866 0 7 3.13401 7 7 0 1.66578-.5818 3.19558-1.5533 4.39738.0292.0217.0571.0458.0836.0723l4 4c.2929.2929.2929.7678 0 1.0607-.2929.2928-.7677.2928-1.0606 0l-4-4c-.0265-.0265-.0506-.0545-.0723-.0837zm1.1026-5.44668c0 3.03758-2.4624 5.49998-5.5 5.49998-3.03757 0-5.5-2.4624-5.5-5.49998 0-3.03756 2.46243-5.5 5.5-5.5 3.0376 0 5.5 2.46244 5.5 5.5z" fill="#9a9ca3" fill-rule="evenodd"/></svg>