<?xml version="1.0" encoding="UTF-8" standalone="no"?>
<svg
   version="1.1"
   width="512"
   height="512"
   x="0"
   y="0"
   viewBox="0 0 422.667 422.667"
   xml:space="preserve"
   class=""
   id="svg1"
   sodipodi:docname="water-drop.svg"
   inkscape:export-filename="water-drop.svg"
   inkscape:export-xdpi="96"
   inkscape:export-ydpi="96"
   xmlns:inkscape="http://www.inkscape.org/namespaces/inkscape"
   xmlns:sodipodi="http://sodipodi.sourceforge.net/DTD/sodipodi-0.dtd"
   xmlns="http://www.w3.org/2000/svg"
   xmlns:svg="http://www.w3.org/2000/svg"><defs
     id="defs1"><linearGradient
       id="swatch1"
       inkscape:swatch="solid"><stop
         style="stop-color:#000000;stop-opacity:1;"
         offset="0"
         id="stop1" /></linearGradient></defs><sodipodi:namedview
     id="namedview1"
     pagecolor="#ffffff"
     bordercolor="#000000"
     borderopacity="0.25"
     inkscape:showpageshadow="2"
     inkscape:pageopacity="0.0"
     inkscape:pagecheckerboard="0"
     inkscape:deskcolor="#d1d1d1" /><g
     id="g1"
     style="fill:#ff914d;fill-opacity:1;stroke:#ff914d;stroke-width:4.84826;stroke-dasharray:none;stroke-opacity:1"
     transform="matrix(0.99714953,0,0,0.96934297,1.866888,7.1091702)"><path
       d="M 250.05189,49.03815 C 238.31276,35.66219 227.74754,23.814911 219.53015,13.878483 c -0.3913,-0.764339 -1.17392,-1.14651 -1.56522,-1.52868 -4.30435,-3.439533 -10.56522,-2.6751924 -14.08696,1.52868 -8.21739,9.936428 -18.78261,21.783707 -30.52174,35.159667 -51.65219,58.47205 -123.260897,139.49216 -123.260897,207.13629 0,43.56742 18.000003,82.93096 47.347835,111.59373 29.347832,28.2806 69.652192,46.2426 114.260892,46.2426 44.6087,0 84.91307,-17.57983 114.2609,-46.2426 29.34782,-28.66277 47.34783,-68.02631 47.34783,-111.59373 0,-67.64413 -71.60871,-148.66424 -123.2609,-207.13629 z M 311.878,353.62787 c -25.82609,25.22323 -61.04349,40.89222 -100.17394,40.89222 -39.13044,0 -74.34784,-15.66899 -100.17394,-40.51005 -25.43478,-24.84107 -41.478262,-59.61857 -41.478262,-97.8356 0,-60.3829 68.869582,-138.34564 118.565242,-194.52467 8.21739,-9.554258 16.04348,-18.344174 23.08696,-26.75192 7.04348,8.407746 14.86957,17.197662 23.08696,26.369749 49.69566,56.179031 118.56525,133.759601 118.56525,194.524671 0,38.21704 -16.04349,72.61236 -41.47827,97.8356 z"
       fill="#ff914d"
       opacity="1"
       data-original="#000000"
       class=""
       id="path1"
       style="fill:#ff914d;fill-opacity:1;stroke:#ff914d;stroke-width:28.055;stroke-dasharray:none;stroke-opacity:1" /></g></svg>
