<svg id="flat" height="512" viewBox="0 0 500 500" width="512" xmlns="http://www.w3.org/2000/svg"><path d="m425.783 355.517a158.275 158.275 0 0 1 -129.214 66.588c-87.423 0-158.288-70.6-158.288-157.7 0-78.992 58.308-144.439 134.412-155.9a148.551 148.551 0 0 0 -43.119 104.824c0 82.519 67.153 149.422 149.983 149.422a149.954 149.954 0 0 0 46.226-7.234z" fill="#ffd980"/><circle cx="90.926" cy="342.987" fill="#fea446" r="13.544"/><circle cx="347.507" cy="306.406" fill="#ffd980" r="13.544"/><path d="m72.965 241.924c4.879-5.19-2.43-12.5-7.619-7.618-4.879 5.194 2.43 12.494 7.619 7.618z" fill="#ffd980"/><g fill="#fea446"><path d="m294 179.631c4.88-5.19-2.43-12.5-7.618-7.618-4.877 5.187 2.432 12.497 7.618 7.618z"/><path d="m116.585 61.748c-6.016 21.855 1.9 46.619-32.862 52.094 20.958 5.864 27.23 2.937 32.862 52.094 6.015-21.855 0-46.649 32.861-52.094-32.861-7.935-28.639-28.889-32.861-52.094z"/><path d="m407.921 160.571c-6.015 21.855 1.9 46.619-32.861 52.094 20.958 5.864 27.23 2.937 32.861 52.094 6.015-21.855 0-46.649 32.862-52.094-32.862-7.935-28.639-28.889-32.862-52.094z"/></g></svg>