<svg id="Mostly_Clear" enable-background="new 0 0 128 122.846" viewBox="0 0 128 122.846" xmlns="http://www.w3.org/2000/svg"><g><g><path d="m96.945 96.398c-36.088 0-65.343-29.255-65.343-65.343 0-11.241 2.84-21.818 7.84-31.055-20.419 11.05-34.288 32.656-34.288 57.503 0 36.088 29.255 65.343 65.343 65.343 24.847 0 46.453-13.87 57.503-34.288-9.237 4.999-19.814 7.84-31.055 7.84z" fill="#ffea3b"/><g><path d="m47.885 91.585c8.35 0 15.119-6.769 15.119-15.119s-6.769-15.119-15.119-15.119c-.66 0-1.306.057-1.943.139-3.395-4.239-8.612-6.957-14.465-6.957-9.932 0-18.037 7.815-18.505 17.63-.954-.304-1.969-.471-3.024-.471-5.494.001-9.948 4.455-9.948 9.949s4.454 9.948 9.948 9.948z" fill="#e5e5e5"/></g></g></g></svg>