<svg id="Layer_1" viewBox="0 0 24 24" xmlns="http://www.w3.org/2000/svg" xmlns:xlink="http://www.w3.org/1999/xlink" data-name="Layer 1"><radialGradient id="radial-gradient" cx="10.92" cy="12" gradientUnits="userSpaceOnUse" r="9.98"><stop offset="0" stop-color="#ffe7a3"/><stop offset=".5" stop-color="#ffca05"/><stop offset="1" stop-color="#faac18"/></radialGradient><radialGradient id="radial-gradient-2" cx="13.49" cy="5.68" gradientUnits="userSpaceOnUse" r="11.03"><stop offset="0" stop-color="#fafbfb"/><stop offset=".37" stop-color="#e9ecec"/><stop offset=".77" stop-color="#e3e6e7"/><stop offset="1" stop-color="#cfd8dc"/></radialGradient><path d="m19.76 17.83c-3.91.65-7.88-1.21-9.87-4.65-1.98-3.43-1.62-7.8.91-10.87.13-.16.15-.39.05-.57s-.31-.28-.52-.24c-1.27.21-2.46.64-3.54 1.26-2.45 1.41-4.2 3.69-4.93 6.42s-.36 5.58 1.06 8.02c1.41 2.45 3.69 4.2 6.42 4.93.91.24 1.83.37 2.75.37 1.83 0 3.64-.48 5.27-1.42 1.08-.63 2.05-1.45 2.87-2.44.13-.16.15-.39.05-.57s-.31-.28-.52-.24z" fill="url(#radial-gradient)"/><path d="m17.8 6.91c-.46-.72-1.33-1.76-2.77-2.2-.46-.14-.94-.21-1.43-.21-2.68 0-4.87 2.16-4.9 4.84-.79.11-1.52.47-2.1 1.05-.71.7-1.1 1.63-1.1 2.62 0 2.04 1.66 3.7 3.7 3.7h8.4c2.7-.01 4.9-2.21 4.9-4.9 0-1.31-.52-2.54-1.47-3.47-.88-.87-2.02-1.36-3.23-1.42z" fill="url(#radial-gradient-2)"/></svg>