<?xml version="1.0" encoding="UTF-8" standalone="no"?>
<svg
   height="512pt"
   viewBox="0 -32 512 512"
   width="512pt"
   version="1.1"
   id="svg19"
   xmlns="http://www.w3.org/2000/svg"
   xmlns:svg="http://www.w3.org/2000/svg">
  <defs
     id="defs19" />
  <path
     d="m 62.640625,137.23047 c 2.804687,-46.371095 41.292965,-83.113282 88.371095,-83.113282 37.96484,0 70.34765,23.902343 82.92969,57.476562 32.69531,0.39453 59.08203,27.00391 59.08203,59.79297 0,33.03515 -26.78125,59.8164 -59.81641,59.8164 -13.82812,0 -154.718749,0 -168.92578,0 -25.960938,0 -47.007812,-21.04687 -47.007812,-47.00781 0,-25.41015 20.167968,-46.09765 45.367187,-46.96484 z m 0,0"
     fill="#f0f5f7"
     id="path1" />
  <path
     d="m 293.02344,171.39062 c 0,23.89844 -14.02735,44.53125 -34.29297,54.10547 3.65234,-7.73828 5.69922,-16.39062 5.69922,-25.51953 0,-32.78906 -26.38282,-59.40234 -59.07813,-59.79297 -12.58594,-33.57812 -44.96484,-57.476559 -82.93359,-57.476559 -17.12109,0 -33.109376,4.859375 -46.656251,13.28125 15.625,-25.136719 43.480471,-41.867187 75.250001,-41.867187 37.96094,0 70.34765,23.898437 82.92578,57.468746 32.69922,0.39844 59.08594,27.01172 59.08594,59.80078 z m 0,0"
     fill="#dde9ed"
     id="path2" />
  <path
     d="m 460.94922,249.11719 c -3.16016,-52.17969 -46.46875,-93.52344 -99.44531,-93.52344 -42.72266,0 -79.16016,26.89453 -93.32032,64.67187 -36.79296,0.44532 -66.48437,30.39063 -66.48437,67.28907 0,37.17578 30.13672,67.30859 67.30859,67.30859 h 190.09375 c 29.21485,0 52.89453,-23.68359 52.89453,-52.89453 0,-28.59766 -22.6914,-51.875 -51.04687,-52.85156 z m 0,0"
     fill="#c4e1e8"
     id="path3" />
  <path
     d="m 512,301.96484 c 0,29.21485 -23.6875,52.90235 -52.90234,52.90235 H 455 c 3.83594,-7.32422 6.00781,-15.66016 6.00781,-24.4961 0,-28.59375 -22.6914,-51.875 -51.05078,-52.85546 -3.15625,-52.17579 -46.47266,-93.52344 -99.44531,-93.52344 -7.14453,0 -14.10938,0.75 -20.82031,2.17969 18.12109,-18.84766 43.59375,-30.57813 71.8125,-30.57813 52.97656,0 96.28906,41.33984 99.44531,93.52734 28.35937,0.96875 51.05078,24.25 51.05078,52.84375 z m 0,0"
     fill="#a4d5dd"
     id="path4" />
  <path
     d="m 310.06641,311.80859 c -65.5,0 -118.59375,-53.09375 -118.59375,-118.59375 0,-57.44531 40.84375,-105.359371 95.08203,-116.253902 -1.53516,7.601562 -2.33594,15.457031 -2.33594,23.511722 0,65.5 53.08984,118.58984 118.58984,118.58984 8.05469,0 15.91016,-0.80078 23.51172,-2.33203 -10.91015,54.23437 -58.82031,95.07812 -116.2539,95.07812 z m 0,0"
     fill="#fab03c"
     id="path6" />
  <path
     d="m 259.25,249.11719 c -3.16016,-52.17969 -46.46875,-93.52344 -99.44531,-93.52344 -42.72266,0 -79.160159,26.89453 -93.320315,64.67187 C 29.691406,220.71094 0,250.65625 0,287.55469 c 0,37.17187 30.136719,67.30859 67.308594,67.30859 H 257.40234 c 29.21485,0 52.89844,-23.68359 52.89844,-52.89844 -0.004,-28.59375 -22.69531,-51.87109 -51.05078,-52.84765 z m 0,0"
     fill="#c4e1e8"
     id="path12" />
  <path
     d="m 310.30078,301.96484 c 0,29.21485 -23.6875,52.90235 -52.90234,52.90235 h -4.09766 c 3.83594,-7.32422 6.00781,-15.66016 6.00781,-24.4961 0,-28.59375 -22.6914,-51.875 -51.05078,-52.85546 -3.15625,-52.17579 -46.47265,-93.52344 -99.44531,-93.52344 -7.14453,0 -14.109375,0.75 -20.820312,2.17969 18.121092,-18.84766 43.593752,-30.57813 71.812502,-30.57813 52.97656,0 96.28906,41.33984 99.44922,93.52734 28.35546,0.96875 51.04687,24.25 51.04687,52.84375 z m 0,0"
     fill="#a4d5dd"
     id="path13" />
  <path
     d="m 418.56641,342.79297 c -3.15625,-52.17969 -46.46875,-93.52344 -99.44141,-93.52344 -42.72656,0 -79.16406,26.89453 -93.32422,64.67188 -36.78906,0.44531 -66.48047,30.39453 -66.48047,67.28906 0,37.17578 30.13281,67.30859 67.3086,67.30859 h 190.09375 c 29.21093,0 52.89453,-23.68359 52.89453,-52.89453 0,-28.59766 -22.69141,-51.875 -51.05078,-52.85156 z m 0,0"
     fill="#f0f5f7"
     id="path14" />
  <path
     d="m 469.62109,395.64062 c 0,29.21485 -23.6875,52.90235 -52.90234,52.90235 h -4.09766 c 3.83594,-7.32422 6.00782,-15.66016 6.00782,-24.4961 0,-28.59375 -22.69141,-51.875 -51.05079,-52.85546 -3.15625,-52.17579 -46.47265,-93.52344 -99.44921,-93.52344 -7.14453,0 -14.10938,0.75 -20.82032,2.17969 18.125,-18.84375 43.59766,-30.57813 71.81641,-30.57813 52.97656,0 96.28906,41.33984 99.44531,93.52734 28.35938,0.96875 51.05078,24.25 51.05078,52.84375 z m 0,0"
     fill="#dde9ed"
     id="path15" />
  <path
     d="m 392.19141,336.9375 c -3.48829,0 -6.65235,-2.38281 -7.50391,-5.92188 -0.89453,-3.71875 -2.11719,-7.38671 -3.63672,-10.89843 -1.69531,-3.91797 0.10547,-8.46485 4.02344,-10.16016 3.91797,-1.69531 8.46484,0.10938 10.16015,4.02344 1.8711,4.32812 3.375,8.84375 4.47657,13.42187 1,4.15235 -1.5586,8.32032 -5.70703,9.32032 -0.60547,0.14453 -1.21485,0.21484 -1.8125,0.21484 z m 0,0"
     fill="#f0f5f7"
     id="path16" />
  <path
     d="m 373.37109,302.57812 c -2.03125,0 -4.05859,-0.79687 -5.57422,-2.3789 -12.86718,-13.40625 -30.15234,-20.78906 -48.67187,-20.78906 -4.26563,0 -7.72656,-3.45703 -7.72656,-7.72657 0,-4.26562 3.46093,-7.72265 7.72656,-7.72265 22.76562,0 44.01172,9.07031 59.82031,25.54297 2.95313,3.07422 2.85547,7.96875 -0.22265,10.92187 -1.5,1.4375 -3.42578,2.15235 -5.35157,2.15234 z m 0,0"
     fill="#f0f5f7"
     id="path17" />
  <path
     d="m 78.875,372.9375 c 2.257812,-37.30469 33.22266,-66.85938 71.09375,-66.85938 30.54687,0 56.59375,19.22657 66.71875,46.23438 26.30469,0.32031 47.53125,21.72656 47.53125,48.10547 0,26.57812 -21.54297,48.12109 -48.12109,48.12109 -11.125,0 -124.468754,0 -135.902348,0 -20.882812,0 -37.816406,-16.92969 -37.816406,-37.8164 0,-20.44141 16.222656,-37.08594 36.496094,-37.78516 z m 0,0"
     fill="#f0f5f7"
     id="path18" />
  <path
     d="m 264.21875,400.42187 c 0,26.34766 -21.1875,47.75 -47.45703,48.10938 7.875,-8.57422 12.67969,-19.99609 12.67969,-32.54297 0,-26.375 -21.22266,-47.78516 -47.53516,-48.10547 -10.12109,-27.0039 -36.16797,-46.23828 -66.71875,-46.23828 -3.60937,0 -7.15234,0.27344 -10.62109,0.79297 12.32422,-10.21875 28.14453,-16.35547 45.40234,-16.35547 30.54687,0 56.59375,19.22266 66.71484,46.23438 26.3125,0.32031 47.53516,21.72265 47.53516,48.10546 z m 0,0"
     fill="#dde9ed"
     id="path19" />
</svg>
