<svg height="512" viewBox="0 0 48 48" width="512" xmlns="http://www.w3.org/2000/svg" xmlns:xlink="http://www.w3.org/1999/xlink"><linearGradient id="linear-gradient" gradientUnits="userSpaceOnUse" x1="26.627" x2="41.21" y1="4.507" y2="24.09"><stop offset="0" stop-color="#ffca4f"/><stop offset="1" stop-color="#f7ae30"/></linearGradient><linearGradient id="linear-gradient-2" gradientUnits="userSpaceOnUse" x1="33.218" x2="43.927" y1="16.992" y2="26.117"><stop offset="0" stop-color="#ffca4f" stop-opacity="0"/><stop offset="1" stop-color="#f4901f"/></linearGradient><linearGradient id="linear-gradient-3" gradientUnits="userSpaceOnUse" x1="20.808" x2="20.808" y1="14" y2="35.874"><stop offset="0" stop-color="#eaecf7"/><stop offset="1" stop-color="#cdd3f1"/></linearGradient><linearGradient id="linear-gradient-4" x1="36.364" x2="33.697" xlink:href="#linear-gradient-3" y1="40.059" y2="45.809"/><linearGradient id="linear-gradient-5" x1="26.3" x2="23.675" xlink:href="#linear-gradient-3" y1="40.244" y2="45.807"/><linearGradient id="linear-gradient-6" x1="16.425" x2="13.612" xlink:href="#linear-gradient-3" y1="40.103" y2="45.822"/><linearGradient id="linear-gradient-7" x1="6.285" x2="3.66" xlink:href="#linear-gradient-3" y1="40.267" y2="45.85"/><linearGradient id="linear-gradient-8" gradientUnits="userSpaceOnUse" x1="20.822" x2="20.822" y1="28.082" y2="37.75"><stop offset="0" stop-color="#e2e5f4" stop-opacity="0"/><stop offset="1" stop-color="#9aa6e2"/></linearGradient><g id="Night_Rain" data-name="Night Rain"><path d="m42.21 19.393a9.6 9.6 0 0 1 -5.676-17.356c-.243-.015-.485-.037-.734-.037a11.442 11.442 0 1 0 10.2 16.614 9.576 9.576 0 0 1 -3.79.779z" fill="url(#linear-gradient)"/><path d="m33.61 14.054-7.487 5.471a11.424 11.424 0 0 0 19.877-.911 9.6 9.6 0 0 1 -12.39-4.56z" fill="url(#linear-gradient-2)"/><path d="m32.776 22.322c-.1 0-.2.011-.305.015a11.1 11.1 0 0 0 -20.263-3.271 8.548 8.548 0 1 0 -1.659 16.934h22.227a6.839 6.839 0 0 0 0-13.678z" fill="url(#linear-gradient-3)"/><path d="m34 46a1 1 0 0 1 -.894-1.447l2-4a1 1 0 1 1 1.789.895l-2 4a1 1 0 0 1 -.895.552z" fill="url(#linear-gradient-4)"/><path d="m24 46a1 1 0 0 1 -.894-1.447l2-4a1 1 0 0 1 1.789.895l-2 4a1 1 0 0 1 -.895.552z" fill="url(#linear-gradient-5)"/><path d="m14 46a1 1 0 0 1 -.894-1.447l2-4a1 1 0 0 1 1.789.895l-2 4a1 1 0 0 1 -.895.552z" fill="url(#linear-gradient-6)"/><path d="m4 46a1 1 0 0 1 -.894-1.447l2-4a1 1 0 1 1 1.789.895l-2 4a1 1 0 0 1 -.895.552z" fill="url(#linear-gradient-7)"/><path d="m2.028 28a8.542 8.542 0 0 0 8.521 8h22.227a6.8 6.8 0 0 0 6.733-8z" fill="url(#linear-gradient-8)"/></g></svg>