<svg clip-rule="evenodd" fill-rule="evenodd" height="512" stroke-linejoin="round" stroke-miterlimit="2" viewBox="0 0 32 32" width="512" xmlns="http://www.w3.org/2000/svg"><path d="m17 30v-8c0-.552-.448-1-1-1s-1 .448-1 1v8c0 .552.448 1 1 1s1-.448 1-1zm6 0v-8c0-.552-.448-1-1-1s-1 .448-1 1v8c0 .552.448 1 1 1s1-.448 1-1zm-12 0v-8c0-.552-.448-1-1-1s-1 .448-1 1v8c0 .552.448 1 1 1s1-.448 1-1zm-5.05-11.001c-.057-.003-.113-.011-.166-.023-2.724-.562-4.784-3.087-4.784-5.976 0-3.311 2.689-6 6-6 .17 0 .339.007.506.021 1.231-3.505 4.571-6.021 8.494-6.021s7.263 2.516 8.494 6.021c.167-.014.336-.021.506-.021 3.311 0 6 2.689 6 6s-2.689 6-6 6h-19z"/></svg>