<svg enable-background="new 0 0 32 32" viewBox="0 0 32 32" xmlns="http://www.w3.org/2000/svg"><g id="Gui" display="none"/><g id="Layer_2"><g><g fill="#ffd901"><circle cx="16" cy="16" r="6"/><path d="m16 8.43c.55 0 1-.45 1-1v-3.43c0-.55-.45-1-1-1s-1 .45-1 1v3.43c0 .55.45 1 1 1z"/><path d="m28 15h-3.43c-.55 0-1 .45-1 1s.45 1 1 1h3.43c.55 0 1-.45 1-1s-.45-1-1-1z"/><path d="m16 23.57c-.55 0-1 .45-1 1v3.43c0 .55.45 1 1 1s1-.45 1-1v-3.43c0-.55-.45-1-1-1z"/><path d="m8.43 16c0-.55-.45-1-1-1h-3.43c-.55 0-1 .45-1 1s.45 1 1 1h3.43c.55 0 1-.45 1-1z"/><path d="m22.06 10.94c.26 0 .51-.1.71-.29l2.42-2.42c.39-.39.39-1.02 0-1.41s-1.02-.39-1.41 0l-2.42 2.42c-.39.39-.39 1.02 0 1.41.19.19.45.29.7.29z"/><path d="m22.77 21.35c-.39-.39-1.02-.39-1.41 0s-.39 1.02 0 1.41l2.42 2.42c.2.2.45.29.71.29s.51-.1.71-.29c.39-.39.39-1.02 0-1.41z"/><path d="m9.23 21.35-2.42 2.42c-.39.39-.39 1.02 0 1.41.2.2.45.29.71.29s.51-.1.71-.29l2.42-2.42c.39-.39.39-1.02 0-1.41s-1.03-.39-1.42 0z"/><path d="m9.23 10.65c.2.2.45.29.71.29s.51-.1.71-.29c.39-.39.39-1.02 0-1.41l-2.43-2.43c-.39-.39-1.02-.39-1.41 0s-.39 1.02 0 1.41z"/></g></g></g></svg>