<svg id="Flat" height="512" viewBox="0 0 64 64" width="512" xmlns="http://www.w3.org/2000/svg"><circle cx="32" cy="32" fill="#f6cb43" r="12"/><g fill="#fab03c"><path d="m32 18a1 1 0 0 1 -1-1v-4a1 1 0 0 1 2 0v4a1 1 0 0 1 -1 1z"/><path d="m21.39 22.39a1 1 0 0 1 -.7-.29l-2.83-2.83a1 1 0 1 1 1.41-1.41l2.83 2.83a1 1 0 0 1 0 1.41 1 1 0 0 1 -.71.29z"/><path d="m17 33h-4a1 1 0 0 1 0-2h4a1 1 0 0 1 0 2z"/><path d="m32 52a1 1 0 0 1 -1-1v-4a1 1 0 0 1 2 0v4a1 1 0 0 1 -1 1z"/><path d="m45.43 46.44a1 1 0 0 1 -.7-.3l-2.83-2.83a1 1 0 0 1 1.41-1.41l2.83 2.83a1 1 0 0 1 0 1.41 1 1 0 0 1 -.71.3z"/><path d="m51 33h-4a1 1 0 0 1 0-2h4a1 1 0 0 1 0 2z"/><path d="m21.39 22.39a1 1 0 0 1 -.7-.29l-2.83-2.83a1 1 0 1 1 1.41-1.41l2.83 2.83a1 1 0 0 1 0 1.41 1 1 0 0 1 -.71.29z"/></g><path d="m53.68 12.09a6 6 0 0 0 -9.82-2.43 3 3 0 0 0 -1.86-.66 3 3 0 0 0 -3 3 3 3 0 0 0 0 6h4.54a6 6 0 0 0 8.92 0h.54a3 3 0 0 0 .68-5.91z" fill="#eff4f6"/><path d="m32 20a11.88 11.88 0 0 0 -6.33 1.82 12 12 0 0 1 10.66 21.36 12 12 0 0 0 -4.33-23.18z" fill="#fab03c"/><path d="m53.68 12.09a6 6 0 0 0 -9.82-2.43 3 3 0 0 0 -4.41.79 2.93 2.93 0 0 1 3.41.21 6 6 0 0 1 9.82 2.43 3 3 0 0 1 2.32 2.91 2.93 2.93 0 0 1 -.45 1.55 3 3 0 0 0 1.45-2.55 3 3 0 0 0 -2.32-2.91z" fill="#dde9ed"/><path d="m10.32 48.09a6 6 0 0 1 9.82-2.43 3 3 0 0 1 1.86-.66 3 3 0 0 1 3 3 3 3 0 0 1 0 6h-4.54a6 6 0 0 1 -8.92 0h-.54a3 3 0 0 1 -.68-5.91z" fill="#eff4f6"/><path d="m25 48a3 3 0 0 0 -3-3 3 3 0 0 0 -1.86.66 6 6 0 0 0 -8.84.64 5.92 5.92 0 0 1 3.7-1.3 6 6 0 0 1 4.14 1.66 3 3 0 0 1 1.86-.66 3 3 0 0 1 3 3 3 3 0 0 1 3 3 2.93 2.93 0 0 1 -.45 1.55 3 3 0 0 0 1.45-2.55 3 3 0 0 0 -3-3z" fill="#dde9ed"/></svg>