<svg id="Layer_1" enable-background="new 0 0 68 68" height="512" viewBox="0 0 68 68" width="512" xmlns="http://www.w3.org/2000/svg"><g><g><g><g><g><circle cx="18.592" cy="27.436" fill="#ffc90d" r="10.837"/></g></g></g><g><g><g><g><path d="m18.591898 14.3868723c-.4749947 0-.8603668-.3853722-.8603668-.8603659v-1.8585234c0-.4749937.3853722-.8603659.8603668-.8603659.4749928 0 .8603649.3853722.8603649.8603659v1.8585234c0 .4749937-.3853722.8603659-.8603649.8603659z" fill="#ffc90d"/></g></g></g><g><g><g><path d="m18.591898 44.0638809c-.4749947 0-.8603668-.3853722-.8603668-.8603668v-1.8585243c0-.4749947.3853722-.8603668.8603668-.8603668.4749928 0 .8603649.3853722.8603649.8603668v1.8585243c0 .4749947-.3853722.8603668-.8603649.8603668z" fill="#ffc90d"/></g></g></g></g><g><g><g><g><path d="m8.7559481 18.4607258c-.2206926 0-.4402647-.0840206-.608305-.2520618l-1.314074-1.3140736c-.3360801-.3360806-.3360801-.8805294 0-1.21661.3360806-.3360806.8805304-.3360806 1.2166104 0l1.3140745 1.3140736c.3360796.3360806.3360796.8805313 0 1.21661-.1680403.1680412-.3876133.2520618-.6083059.2520618z" fill="#ffc90d"/></g></g></g><g><g><g><path d="m29.7419205 39.4455757c-.2195721 0-.4402657-.0840187-.608305-.2514992l-1.3151951-1.3140755c-.3360806-.3360786-.3360806-.8810883 0-1.2171707.3349609-.3355179.8794098-.3360786 1.2166119-.0005569l1.3151932 1.3140717c.3360806.3360825.3360806.8810921 0 1.2171707-.1680394.1680412-.3876133.2520599-.608305.2520599z" fill="#ffc90d"/></g></g></g></g><g><g><g><g><path d="m4.6826553 28.296114h-1.8585236c-.4749935 0-.8603655-.3853722-.8603655-.8603649 0-.4749947.385372-.8603668.8603655-.8603668h1.8585236c.4749937 0 .8603659.3853722.8603659.8603668 0 .4749927-.3853722.8603649-.8603659.8603649z" fill="#ffc90d"/></g></g></g><g><g><g><path d="m34.3596649 28.2955532h-1.8585243c-.4749947 0-.8603668-.3853722-.8603668-.8603649s.3853722-.8603649.8603668-.8603649h1.8585243c.4749908 0 .860363.3853722.860363.8603649s-.3853721.8603649-.860363.8603649z" fill="#ffc90d"/></g></g></g></g><g><g><g><g><path d="m7.4418745 39.4455757c-.2206926 0-.4402652-.0840187-.6083055-.2520599-.3360801-.3360786-.3360801-.8810883 0-1.21661l1.3151946-1.3146324c.3360796-.3366432.8805304-.3355217 1.21661 0 .3360806.3360786.3360806.8810883 0 1.21661l-1.3151941 1.3146324c-.1680398.1680412-.3887325.2520599-.608305.2520599z" fill="#ffc90d"/></g></g></g><g><g><g><path d="m28.4267254 18.4607258c-.2206917 0-.4402637-.0840206-.608305-.2520618-.3360806-.3355198-.3360806-.8805294 0-1.21661l1.3140736-1.3146334c.3360806-.3360806.8805313-.3360806 1.2166119 0 .3360806.3355188.3360806.8805304 0 1.2166109l-1.3140736 1.3146324c-.1680413.1680413-.3876133.2520619-.6083069.2520619z" fill="#ffc90d"/></g></g></g></g></g><g><g><g><g><path d="m66.036232 46.6209946c0 5.8416405-4.7220993 10.5713882-10.5557098 10.5713882h-35.2928219c-5.8338013 0-10.5713863-4.7297478-10.5713863-10.5713882 0-5.8259621 4.7375851-10.5557098 10.5713863-10.5557098h.0154858c.7127113 0 1.3078499-.5559464 1.2686577-1.2606277-.062706-1.3470421.0548687-2.7407303.4855919-4.2365074 1.5112648-5.3093987 6.1861439-9.2794037 11.6911163-9.7256145 5.2543411-.4305325 9.9135437 2.176754 12.4428291 6.2564964.2584763.4152393.7517128.6110058 1.2373085.5326214.4620743-.0860291.93964-.125412 1.4252319-.125412 4.4712753 0 8.1359673 3.5237961 8.5588531 7.8857155.0470314.4855919.3993721.9004478.8690948 1.0254784 2.1222687.5639763 3.9937134 1.769928 5.3640785 3.3987656 1.5504571 1.8402822 2.4902841 4.2128026 2.4902841 6.8047941z" fill="#e9edf4"/></g></g></g></g></g></svg>