<svg height="512" viewBox="0 0 32 32" width="512" xmlns="http://www.w3.org/2000/svg" xmlns:xlink="http://www.w3.org/1999/xlink"><linearGradient id="lg1"><stop offset="0" stop-color="#bbdefb"/><stop offset="1" stop-color="#64b5f6"/></linearGradient><linearGradient id="SVGID_1_" gradientUnits="userSpaceOnUse" x1="1" x2="31" xlink:href="#lg1" y1="12" y2="12"/><linearGradient id="SVGID_2_" gradientUnits="userSpaceOnUse" x1="17" x2="26" xlink:href="#lg1" y1="25" y2="25"/><linearGradient id="SVGID_3_" gradientUnits="userSpaceOnUse" x1="6" x2="15" xlink:href="#lg1" y1="25" y2="25"/><linearGradient id="SVGID_4_" gradientUnits="userSpaceOnUse" x1="6" x2="26" xlink:href="#lg1" y1="29" y2="29"/><g id="foggy"><g><path d="m23 6c-.491 0-.973.042-1.438.127-1.64-2.564-4.471-4.127-7.562-4.127-4.013 0-7.562 2.71-8.649 6.52-2.625 1.063-4.351 3.6-4.351 6.48 0 3.86 3.141 7 7 7h15c4.411 0 8-3.589 8-8s-3.589-8-8-8z" fill="url(#SVGID_1_)"/><g><path d="m25 26h-7c-.553 0-1-.448-1-1s.447-1 1-1h7c.553 0 1 .448 1 1s-.447 1-1 1z" fill="url(#SVGID_2_)"/></g><g><path d="m14 26h-7c-.553 0-1-.448-1-1s.447-1 1-1h7c.553 0 1 .448 1 1s-.447 1-1 1z" fill="url(#SVGID_3_)"/></g><g><path d="m25 30h-18c-.553 0-1-.448-1-1s.447-1 1-1h18c.553 0 1 .448 1 1s-.447 1-1 1z" fill="url(#SVGID_4_)"/></g></g></g></svg>