<svg id="Capa_1" enable-background="new 0 0 512.001 512.001" height="512" viewBox="0 0 512.001 512.001" width="512" xmlns="http://www.w3.org/2000/svg"><g><g fill="#f5fcff"><path d="m276.234 226.846c-4.143 0-7.5-3.358-7.5-7.5v-21.107c0-4.142 3.357-7.5 7.5-7.5s7.5 3.358 7.5 7.5v21.107c0 4.142-3.357 7.5-7.5 7.5z"/><path d="m306.234 232.846c-4.143 0-7.5-3.358-7.5-7.5v-20.107c0-4.142 3.357-7.5 7.5-7.5s7.5 3.358 7.5 7.5v20.107c0 4.142-3.357 7.5-7.5 7.5z"/><path d="m439.93 158.342c-1.984 0-3.965-.783-5.439-2.335l-19.479-20.511c-2.853-3.003-2.729-7.75.273-10.603 3.004-2.852 7.751-2.73 10.604.274l19.479 20.511c2.853 3.003 2.729 7.75-.273 10.603-1.452 1.378-3.31 2.061-5.165 2.061z"/><path d="m459.642 136.657c-1.984 0-3.965-.783-5.439-2.335l-19.479-20.511c-2.853-3.003-2.729-7.75.273-10.603 3.004-2.853 7.751-2.73 10.604.274l19.479 20.511c2.853 3.003 2.729 7.75-.273 10.603-1.452 1.378-3.31 2.061-5.165 2.061z"/><path d="m445.166 262.282c-.796 0-1.604-.127-2.4-.396l-29.116-9.832c-3.925-1.325-6.031-5.581-4.706-9.505 1.325-3.925 5.58-6.032 9.505-4.707l29.116 9.832c3.925 1.325 6.031 5.581 4.706 9.505-1.057 3.13-3.976 5.103-7.105 5.103z"/><path d="m433.135 305.124c-.796 0-1.604-.127-2.4-.396l-29.116-9.833c-3.925-1.326-6.031-5.581-4.706-9.505 1.325-3.925 5.58-6.03 9.505-4.707l29.116 9.833c3.925 1.326 6.031 5.581 4.706 9.505-1.058 3.13-3.977 5.103-7.105 5.103z"/></g><path d="m362.159 358.487c-1.927 0-3.854-.738-5.32-2.213-2.919-2.938-2.904-7.687.034-10.606 19.732-19.61 34.638-47.004 44.301-81.422 7.436-26.486 10.374-52.068 11.354-72.214-16.727 14.689-34.788 28.971-53.97 42.619-64.471 45.874-137.76 81.496-201.076 97.733-4.015 1.031-8.1-1.39-9.128-5.402-1.029-4.013 1.39-8.099 5.401-9.128 53.66-13.761 114.815-41.927 171.351-78.603-56.007-4.56-108.769-25.24-138.577-55.167-2.924-2.935-2.914-7.684.021-10.607 2.936-2.923 7.685-2.914 10.606.021 15.191 15.251 37.52 28.208 64.57 37.471 26.446 9.055 55.538 13.964 84.229 14.22 1.308-.917 2.607-1.835 3.907-2.76 66.553-47.354 119.14-102.292 148.072-154.694 2.002-3.625 6.563-4.944 10.19-2.94 3.626 2.002 4.942 6.564 2.94 10.19-18.926 34.278-47.472 69.502-83.129 103.046-.202 22.363-2.567 55.527-12.321 90.269-10.371 36.941-26.577 66.551-48.17 88.008-1.462 1.453-3.374 2.179-5.285 2.179z" fill="#cdb1b1"/><path d="m166.443 281.686c.718-.718 1.26-1.546 1.626-2.43 1.126-2.719.584-5.966-1.627-8.177-2.928-2.93-7.677-2.93-10.607 0l-36.978 36.978 20.012-48.314c1.585-3.827-.232-8.214-4.059-9.799s-8.214.232-9.799 4.059l-20.011 48.314v-52.295c0-4.143-3.358-7.5-7.5-7.5s-7.499 3.356-7.5 7.5v52.295l-20.012-48.314c-1.585-3.827-5.972-5.644-9.799-4.059-3.827 1.586-5.644 5.972-4.059 9.8l20.012 48.314-36.979-36.978c-2.928-2.93-7.677-2.929-10.607 0-2.927 2.927-2.929 7.677 0 10.606l36.979 36.979-48.315-20.013c-3.827-1.585-8.214.232-9.799 4.059s.232 8.214 4.059 9.799l48.315 20.013h-52.295c-4.142 0-7.501 3.357-7.5 7.5 0 4.142 3.358 7.5 7.5 7.5h52.295l-48.314 20.012c-3.827 1.586-5.644 5.973-4.059 9.8s5.973 5.644 9.799 4.059l48.314-20.012 50.072-28.858z" fill="#f5fcff"/><path d="m187.499 332.523h-71.893l-50.072 28.858-36.978 36.978c-2.926 2.927-2.929 7.677 0 10.606 2.928 2.93 7.677 2.929 10.607 0l36.978-36.978-20.012 48.314c-1.585 3.827.232 8.214 4.059 9.799s8.214-.232 9.799-4.059l20.013-48.313v52.295c0 4.143 3.358 7.501 7.5 7.5 3.126 0 5.805-1.912 6.932-4.631.366-.883.568-1.852.568-2.868v-52.295l20.012 48.314c1.585 3.827 5.972 5.644 9.799 4.059 1.913-.793 3.325-2.286 4.059-4.059s.792-3.827 0-5.741l-20.012-48.314 36.978 36.978c2.928 2.93 7.677 2.93 10.607 0 .718-.718 1.26-1.546 1.626-2.43 1.126-2.719.584-5.966-1.627-8.177l-36.979-36.979 48.315 20.013c3.827 1.585 8.214-.232 9.799-4.059s-.232-8.214-4.059-9.799l-48.315-20.013h52.297c3.126 0 5.806-1.912 6.932-4.631.366-.883.568-1.852.568-2.868-.001-4.143-3.358-7.501-7.501-7.5z" fill="#d8e2f3"/><path d="m147.5 330.023c0-11.443-7.583-30.053-18.765-41.235-9.099-5.559-19.792-8.765-31.235-8.765-33.137 0-60 26.863-60 60 0 11.443 3.206 22.136 8.765 31.235 13.481 13.481 29.792 18.765 41.235 18.765 33.137 0 60-26.863 60-60z" fill="#f6c4c8"/><path d="m128.735 288.788c5.559 9.099 8.765 19.792 8.765 31.235 0 33.137-26.863 60-60 60-11.443 0-22.136-3.206-31.235-8.765 10.539 17.25 29.541 28.765 51.235 28.765 33.137 0 60-26.863 60-60 0-21.694-11.516-40.697-28.765-51.235z" fill="#e6989e"/><path d="m45 340.022c0-28.949 23.552-52.5 52.5-52.5 10.001 0 19.356 2.813 27.32 7.687l7.806-2.063v-10.741c-10.239-6.265-22.267-9.883-35.125-9.883-37.22 0-67.5 30.28-67.5 67.5 0 12.858 3.617 24.886 9.883 35.126h11.884l.919-7.806c-4.874-7.964-7.687-17.319-7.687-27.32z" fill="#f5fcff"/><path d="m132.625 282.405-7.806 12.804c15.089 9.233 25.18 25.866 25.18 44.813 0 28.949-23.552 52.5-52.5 52.5-18.948 0-35.58-10.091-44.813-25.18l-12.804 7.806c11.871 19.4 33.256 32.374 57.617 32.374 37.22 0 67.5-30.28 67.5-67.5.001-24.361-12.974-45.746-32.374-57.617z" fill="#d8e2f3"/><path d="m190.87 56.001c1.586-3.827-.231-8.214-4.059-9.799-3.824-1.584-8.213.232-9.799 4.059l-20.012 48.315v-52.296c0-4.142-3.357-7.5-7.5-7.5s-7.5 3.358-7.5 7.5v52.296l-20.013-48.315c-1.585-3.827-5.972-5.646-9.799-4.059-3.827 1.585-5.645 5.973-4.059 9.799l20.012 48.314-36.977-36.978c-2.93-2.929-7.678-2.929-10.607 0s-2.929 7.678 0 10.606l36.978 36.978-48.315-20.011c-3.824-1.583-8.214.232-9.799 4.059-1.586 3.827.231 8.214 4.059 9.799l48.314 20.012h-52.294c-4.143 0-7.5 3.358-7.5 7.5s3.357 7.5 7.5 7.5h52.294l-48.314 20.012c-3.827 1.585-5.645 5.973-4.059 9.799 1.196 2.888 3.988 4.632 6.932 4.632.956 0 1.929-.184 2.867-.573l48.314-20.012 53.323-53.323z" fill="#f5fcff"/><path d="m247 136.28c0-4.142-3.357-7.5-7.5-7.5h-52.294l48.314-20.012c3.827-1.585 5.645-5.973 4.059-9.799-1.585-3.827-5.971-5.644-9.799-4.059l-48.314 20.012 36.978-36.978c2.929-2.929 2.929-7.678 0-10.606-2.93-2.929-7.678-2.929-10.607 0l-36.978 36.978-53.323 53.323-36.978 36.978c-2.929 2.929-2.929 7.678 0 10.606 1.465 1.464 3.385 2.197 5.304 2.197s3.839-.732 5.304-2.197l36.978-36.978-20.012 48.314c-1.586 3.827.231 8.214 4.059 9.799.938.389 1.91.573 2.867.573 2.943 0 5.735-1.744 6.932-4.632l20.01-48.315v52.296c0 4.142 3.357 7.5 7.5 7.5s7.5-3.358 7.5-7.5v-52.296l20.013 48.315c1.196 2.888 3.988 4.632 6.932 4.632.956 0 1.929-.184 2.867-.573 3.827-1.585 5.645-5.973 4.059-9.799l-27.512-66.421 66.422 27.512c.938.389 1.91.573 2.867.573 2.943 0 5.735-1.744 6.932-4.632 1.586-3.827-.231-8.214-4.059-9.799l-48.314-20.012h52.293c4.142 0 7.5-3.358 7.5-7.5z" fill="#d8e2f3"/><path d="m199.5 126.28c0-11.443-7.583-30.053-18.765-41.235-9.099-5.559-19.792-8.765-31.235-8.765-33.137 0-60 26.863-60 60 0 11.443 3.206 22.136 8.765 31.235 13.481 13.481 29.792 18.765 41.235 18.765 33.137 0 60-26.863 60-60z" fill="#f6c4c8"/><path d="m180.735 85.045c5.559 9.099 8.765 19.792 8.765 31.235 0 33.137-26.863 60-60 60-11.443 0-22.136-3.206-31.235-8.765 10.539 17.25 29.541 28.765 51.235 28.765 33.137 0 60-26.863 60-60 0-21.694-11.516-40.696-28.765-51.235z" fill="#e6989e"/><path d="m97 136.28c0-28.949 23.552-52.5 52.5-52.5 10.001 0 19.356 2.813 27.32 7.687l7.806-2.063v-10.741c-10.239-6.265-22.267-9.883-35.125-9.883-37.22 0-67.5 30.28-67.5 67.5 0 12.858 3.617 24.886 9.883 35.126h11.884l.919-7.806c-4.874-7.964-7.687-17.319-7.687-27.32z" fill="#f5fcff"/><path d="m184.625 78.663-7.806 12.804c15.089 9.233 25.18 25.866 25.18 44.813 0 28.949-23.552 52.5-52.5 52.5-18.948 0-35.58-10.091-44.813-25.18l-12.804 7.806c11.871 19.4 33.256 32.374 57.617 32.374 37.22 0 67.5-30.28 67.5-67.5.001-24.361-12.974-45.747-32.374-57.617z" fill="#d8e2f3"/><path d="m360.97 312.761c.389-.938.573-1.91.573-2.867 0-2.943-1.744-5.735-4.632-6.932-3.827-1.586-8.214.231-9.799 4.059l-20.012 48.314v-52.294c0-4.143-3.358-7.5-7.5-7.5s-7.5 3.357-7.5 7.5v52.294l-20.012-48.314c-1.585-3.827-5.973-5.645-9.799-4.059-3.827 1.585-5.644 5.971-4.059 9.799l20.012 48.314-36.978-36.978c-2.929-2.929-7.678-2.929-10.606 0-2.929 2.93-2.929 7.678 0 10.607l36.978 36.978-48.314-20.012c-3.827-1.586-8.214.231-9.799 4.059-1.584 3.824.232 8.213 4.059 9.799l48.315 20.012h-52.296c-4.142 0-7.5 3.357-7.5 7.5s3.358 7.5 7.5 7.5h52.296l-48.315 20.013c-3.827 1.585-5.646 5.972-4.059 9.799 1.585 3.827 5.973 5.645 9.799 4.059l48.314-20.013 45.823-35.216z" fill="#f5fcff"/><path d="m417.1 393.04c0-4.143-3.358-7.5-7.5-7.5h-52.296l48.315-20.013c2.888-1.196 4.632-3.988 4.632-6.932 0-.956-.184-1.929-.573-2.867-1.585-3.827-5.973-5.645-9.799-4.059l-66.42 27.513-45.823 35.216-36.978 36.978c-2.929 2.93-2.929 7.678 0 10.607s7.678 2.929 10.606 0l36.978-36.978-20.012 48.315c-1.583 3.824.232 8.214 4.059 9.799 3.827 1.586 8.214-.231 9.799-4.059l20.012-48.314v52.294c0 4.143 3.358 7.5 7.5 7.5s7.5-3.358 7.5-7.5v-52.294l20.012 48.314c1.585 3.827 5.973 5.645 9.799 4.059 2.888-1.196 4.632-3.988 4.632-6.932 0-.956-.184-1.929-.573-2.867l-20.013-48.314 36.978 36.978c2.929 2.929 7.678 2.929 10.606 0 1.464-1.465 2.197-3.385 2.197-5.304s-.732-3.839-2.197-5.304l-36.978-36.978 48.314 20.012c3.827 1.586 8.214-.231 9.799-4.059.389-.938.573-1.91.573-2.867 0-2.943-1.744-5.735-4.632-6.932l-48.315-20.012h52.296c4.144 0 7.502-3.357 7.502-7.5z" fill="#d8e2f3"/><path d="m369.6 383.28c0-11.443-7.583-30.053-18.765-41.235-9.099-5.559-19.792-8.765-31.235-8.765-33.137 0-60 26.863-60 60 0 11.443 3.206 22.136 8.765 31.235 13.481 13.481 29.792 18.765 41.235 18.765 33.137 0 60-26.863 60-60z" fill="#f6c4c8"/><path d="m350.835 342.045c5.559 9.099 8.765 19.792 8.765 31.235 0 33.137-26.863 60-60 60-11.443 0-22.136-3.206-31.235-8.765 10.539 17.25 29.541 28.765 51.235 28.765 33.137 0 60-26.863 60-60 0-21.694-11.516-40.696-28.765-51.235z" fill="#e6989e"/><path d="m267.099 393.28c0-28.949 23.552-52.5 52.5-52.5 10.001 0 19.356 2.813 27.32 7.687l7.806-2.063v-10.741c-10.239-6.265-22.267-9.883-35.125-9.883-37.22 0-67.5 30.28-67.5 67.5 0 12.858 3.617 24.886 9.883 35.126h11.884l.919-7.806c-4.873-7.964-7.687-17.319-7.687-27.32z" fill="#f5fcff"/><path d="m354.725 335.663-7.806 12.804c15.089 9.233 25.18 25.866 25.18 44.813 0 28.949-23.552 52.5-52.5 52.5-18.948 0-35.58-10.091-44.813-25.18l-12.804 7.806c11.871 19.4 33.256 32.374 57.617 32.374 37.22 0 67.5-30.28 67.5-67.5 0-24.361-12.974-45.747-32.374-57.617z" fill="#d8e2f3"/><path d="m289.334 58.69c1.389 2.406 3.91 3.751 6.502 3.751 1.272 0 2.562-.324 3.743-1.006l3.75-2.165v4.33c0 4.142 3.357 7.5 7.5 7.5s7.5-3.358 7.5-7.5v-4.33l3.75 2.165c1.182.682 2.471 1.006 3.743 1.006 2.592 0 5.113-1.346 6.502-3.751 2.071-3.587.842-8.174-2.745-10.245l-3.75-2.165 3.75-2.165c3.587-2.071 4.816-6.658 2.745-10.245-2.07-3.588-6.659-4.817-10.245-2.745l-3.75 2.165v-4.33c0-4.142-3.357-7.5-7.5-7.5s-7.5 3.358-7.5 7.5v4.33l-3.75-2.165c-3.589-2.072-8.176-.842-10.245 2.745-2.071 3.587-.842 8.174 2.745 10.245l3.75 2.165-3.75 2.165c-3.587 2.071-4.817 6.658-2.745 10.245z" fill="#d8e2f3"/><path d="m497.375 330.656c-2.07-3.587-6.659-4.816-10.245-2.745l-3.75 2.165v-4.331c0-4.142-3.357-7.5-7.5-7.5s-7.5 3.358-7.5 7.5v4.331l-3.75-2.165c-3.589-2.072-8.176-.842-10.245 2.745-2.071 3.587-.842 8.174 2.745 10.245l3.75 2.165-3.75 2.165c-3.587 2.071-4.816 6.658-2.745 10.245 1.389 2.406 3.91 3.751 6.502 3.751 1.272 0 2.562-.324 3.743-1.006l3.75-2.165v4.33c0 4.142 3.357 7.5 7.5 7.5s7.5-3.358 7.5-7.5v-4.33l3.75 2.165c1.182.682 2.471 1.006 3.743 1.006 2.592 0 5.113-1.346 6.502-3.751 2.071-3.587.842-8.174-2.745-10.245l-3.75-2.165 3.75-2.165c3.587-2.07 4.816-6.657 2.745-10.245z" fill="#d8e2f3"/><path d="m188.286 444.165c-2.072-3.587-6.66-4.817-10.245-2.745l-3.75 2.165v-4.33c0-4.142-3.357-7.5-7.5-7.5s-7.5 3.358-7.5 7.5v4.33l-3.75-2.165c-3.589-2.072-8.175-.842-10.245 2.745-2.071 3.587-.842 8.174 2.745 10.245l3.75 2.165-3.75 2.165c-3.587 2.071-4.816 6.658-2.745 10.245 1.39 2.406 3.91 3.751 6.502 3.751 1.272 0 2.562-.324 3.743-1.006l3.75-2.165v4.33c0 4.142 3.357 7.5 7.5 7.5s7.5-3.358 7.5-7.5v-4.33l3.75 2.165c1.182.682 2.471 1.006 3.743 1.006 2.592 0 5.113-1.345 6.502-3.751 2.071-3.587.842-8.174-2.745-10.245l-3.75-2.165 3.75-2.165c3.587-2.07 4.816-6.658 2.745-10.245z" fill="#d8e2f3"/></g></svg>