<svg id="Light_rain" enable-background="new 0 0 150 150" height="512" viewBox="0 0 150 150" width="512" xmlns="http://www.w3.org/2000/svg"><path d="m79.8 142.1c-9.8 4.3-20.2-6.5-15.9-16.2l10.3-25c.1-.4.5-.7.9-.7.4.1.8.3 1.1.7l10.3 25c2.6 6.3-.4 13.6-6.7 16.2z" fill="#07b6ef"/><path d="m150 61c0 18.1-14.6 32.8-32.7 32.9-.1 0-.1 0-.2 0h-88.6c-1.2 0-2.4-.1-3.6-.2-14-1.7-24.9-13.7-24.9-28.2 0-15.7 12.7-28.4 28.4-28.4 1.7 0 3.4.1 5 .4 4.3-17.4 20.1-30.4 38.9-30.4 15.7 0 29.3 9 35.9 22.2 2.8-.8 5.8-1.2 8.9-1.2 18.2 0 32.9 14.7 32.9 32.9z" fill="#d9ebfc"/><path d="m150 61c0 18.1-14.6 32.8-32.7 32.9-.1 0-.1 0-.2 0h-42.1v-86.7c14.5 1 27 9.7 33.2 22.1 2.8-.8 5.8-1.2 8.9-1.2 18.2 0 32.9 14.7 32.9 32.9z" fill="#c7d7e7"/><path id="Element_3_" d="m116.7 84.6c-1 0-1.8-.8-1.8-1.8s.8-1.8 1.8-1.8c2.5 0 4.9-.5 7.2-1.5 2.2-.9 4.2-2.3 5.9-4s3-3.7 4-5.9c1-2.3 1.5-4.7 1.5-7.2s-.5-4.9-1.5-7.2c-.4-.9 0-1.9.9-2.3s1.9 0 2.3.9c1.1 2.7 1.7 5.6 1.7 8.6s-.6 5.9-1.7 8.6c-1.1 2.6-2.7 5-4.7 7s-4.4 3.6-7 4.7c-2.8 1.3-5.6 1.9-8.6 1.9z" fill="#f0f7fc"/><path d="m75.2 100.2v42.8c-8.1-.1-14.9-9-11.3-17.2l10.3-25c.1-.3.5-.6 1-.6z" fill="#53d5ff"/></svg>