<svg id="Capa_1" enable-background="new 0 0 512.417 512.417" height="512" viewBox="0 0 512.417 512.417" width="512" xmlns="http://www.w3.org/2000/svg"><g fill="#6ad9eb"><path d="m62.353 357.22c-2.595 0-5.223-.673-7.618-2.089-7.132-4.216-9.495-13.415-5.28-20.546l10-16.917c4.217-7.134 13.418-9.494 20.546-5.28 7.132 4.216 9.495 13.415 5.28 20.546l-10 16.917c-2.8 4.736-7.798 7.369-12.928 7.369z"/><path d="m106.866 434.196c-2.596 0-5.224-.673-7.62-2.09-7.131-4.216-9.494-13.414-5.278-20.546l10-16.915c4.216-7.133 13.415-9.495 20.546-5.279s9.494 13.414 5.278 20.546l-10 16.915c-2.799 4.737-7.797 7.369-12.926 7.369z"/><path d="m16.866 434.196c-2.596 0-5.224-.673-7.62-2.09-7.131-4.216-9.494-13.414-5.278-20.546l10-16.915c4.216-7.133 13.415-9.495 20.546-5.279s9.494 13.414 5.278 20.546l-10 16.915c-2.799 4.737-7.797 7.369-12.926 7.369z"/><path d="m196.866 434.196c-2.596 0-5.224-.673-7.62-2.09-7.131-4.216-9.494-13.414-5.278-20.546l10-16.915c4.216-7.133 13.414-9.495 20.546-5.279 7.131 4.216 9.494 13.414 5.278 20.546l-10 16.915c-2.799 4.737-7.797 7.369-12.926 7.369z"/></g><path d="m242.743 356.614c-2.596 0-5.224-.673-7.62-2.09-7.131-4.216-9.494-13.414-5.278-20.546l10-16.915c4.216-7.134 13.414-9.495 20.546-5.279 7.131 4.216 9.494 13.414 5.278 20.546l-10 16.915c-2.799 4.737-7.797 7.369-12.926 7.369z" fill="#28c1d1"/><path d="m332.743 356.614c-2.596 0-5.224-.673-7.62-2.09-7.131-4.216-9.494-13.414-5.278-20.546l10-16.915c4.215-7.134 13.414-9.495 20.546-5.279 7.131 4.216 9.494 13.414 5.278 20.546l-10 16.915c-2.799 4.737-7.797 7.369-12.926 7.369z" fill="#28c1d1"/><path d="m152.743 356.614c-2.596 0-5.224-.673-7.62-2.09-7.131-4.216-9.494-13.414-5.278-20.546l10-16.915c4.216-7.134 13.415-9.495 20.546-5.279s9.494 13.414 5.278 20.546l-10 16.915c-2.799 4.737-7.797 7.369-12.926 7.369z" fill="#6ad9eb"/><path d="m422.298 357.419c-2.595 0-5.223-.673-7.618-2.09-7.132-4.215-9.495-13.414-5.279-20.545l16.464-27.851c4.216-7.133 13.417-9.495 20.545-5.279 7.132 4.215 9.495 13.414 5.279 20.545l-16.464 27.85c-2.799 4.737-7.797 7.37-12.927 7.37z" fill="#28c1d1"/><path d="m286.896 434.199c-2.596 0-5.224-.673-7.62-2.09-7.131-4.216-9.494-13.414-5.278-20.546l10-16.915c4.216-7.133 13.415-9.495 20.546-5.279s9.494 13.414 5.278 20.546l-10 16.915c-2.799 4.736-7.797 7.369-12.926 7.369z" fill="#28c1d1"/><path d="m376.896 434.199c-2.596 0-5.224-.673-7.62-2.09-7.131-4.216-9.494-13.414-5.278-20.546l10-16.915c4.215-7.133 13.414-9.495 20.546-5.279 7.131 4.216 9.494 13.414 5.278 20.546l-10 16.915c-2.799 4.736-7.797 7.369-12.926 7.369z" fill="#28c1d1"/><path d="m60.841 512.414c-2.596 0-5.224-.673-7.619-2.089-7.132-4.216-9.495-13.415-5.28-20.546l10-16.917c4.216-7.132 13.415-9.496 20.546-5.28 7.132 4.216 9.495 13.415 5.28 20.546l-10 16.917c-2.8 4.736-7.798 7.369-12.927 7.369z" fill="#6ad9eb"/><path d="m150.841 512.414c-2.596 0-5.224-.673-7.619-2.089-7.132-4.216-9.495-13.415-5.28-20.546l10-16.917c4.216-7.132 13.414-9.496 20.546-5.28s9.495 13.415 5.28 20.546l-10 16.917c-2.8 4.736-7.798 7.369-12.927 7.369z" fill="#6ad9eb"/><path d="m240.871 512.417c-2.595 0-5.223-.673-7.618-2.089-7.132-4.216-9.495-13.415-5.28-20.546l10-16.917c4.217-7.133 13.418-9.494 20.546-5.28 7.132 4.216 9.495 13.415 5.28 20.546l-10 16.917c-2.8 4.736-7.798 7.369-12.928 7.369z" fill="#28c1d1"/><path d="m330.871 512.417c-2.595 0-5.223-.673-7.618-2.089-7.132-4.216-9.495-13.415-5.28-20.546l10-16.917c4.217-7.133 13.418-9.494 20.546-5.28 7.132 4.216 9.495 13.415 5.28 20.546l-10 16.917c-2.8 4.736-7.799 7.369-12.928 7.369z" fill="#28c1d1"/><path d="m387.185 338.017h-261.952c-68.939 0-125.024-56.075-125.024-125 0-28.756 10.009-56.833 28.183-79.059 16.087-19.674 37.912-34.037 62.133-41.045 9.854-25.672 26.669-47.812 49.001-64.393 25.128-18.658 54.998-28.52 86.381-28.52 32.136 0 62.582 10.295 88.046 29.771 20.66 15.803 36.828 37.14 46.522 61.111 8.737-1.905 17.673-2.866 26.71-2.866 68.938 0 125.024 56.075 125.024 125s-56.086 125.001-125.024 125.001z" fill="#7e9bcc"/><path d="m387.185 338.017c68.938 0 125.024-56.075 125.024-125s-56.086-125-125.024-125c-9.036 0-17.973.961-26.71 2.866-9.694-23.972-25.862-45.308-46.522-61.111-25.464-19.477-55.91-29.772-88.046-29.772v338.017z" fill="#5877a6"/></svg>