<svg enable-background="new -46.989 -31.668 1024 1024" height="1024" viewBox="-46.989 -31.668 1024 1024" width="1024" xmlns="http://www.w3.org/2000/svg"><g><g><path d="m413.435 632.041c-48.414 0-96.828 0-145.242 0-22.43 0-44.859 0-67.289 0-15.636 0-27.704-1.357-42.654-5.728-12.402-3.625-21.736-8.015-33.408-15.261-10.509-6.524-18.544-13.384-27.762-23.287-8.117-8.72-14.417-17.901-20.666-29.806-3.397-6.471-4.461-9.132-6.565-14.938-2.346-6.471-4.138-13.131-5.571-19.858-4.756-22.327-3.194-45.392 3.541-67.527.778-2.559 1.66-5.085 2.574-7.598.456-1.251.944-2.49 1.433-3.729 1.614-4.092-1.176 2.667.579-1.358 2.289-5.248 4.945-10.329 7.815-15.278 2.636-4.545 5.567-8.914 8.661-13.158 2.56-3.511-1.826 2.303.853-1.115.808-1.031 1.642-2.041 2.476-3.05 1.944-2.354 3.99-4.623 6.073-6.854 3.571-3.826 7.386-7.418 11.332-10.854.987-.859 1.997-1.693 3.005-2.527.319-.264 3.746-2.943 1.04-.86 2.425-1.867 4.93-3.627 7.463-5.342 4.359-2.952 8.907-5.616 13.549-8.095 2.332-1.245 4.712-2.398 7.107-3.519 1.201-.562 2.416-1.092 3.631-1.622-3.335 1.454 1.857-.717 2.449-.945 10.083-3.874 20.615-6.507 31.284-8.128 4.498-.683-3.072.333 1.464-.188 1.374-.158 2.752-.278 4.13-.398 2.778-.242 5.566-.369 8.353-.458 2.24-.072 4.482-.058 6.723-.058h34.896c8.171 0 15.057-6.684 15.111-14.896.054-8.13-6.723-15.111-14.896-15.111-11.948 0-23.896 0-35.845 0-20.978 0-41.924 3.517-61.466 11.226-44.833 17.686-79.303 53.332-96.16 98.397-18.453 49.331-10.369 107.196 19.54 150.276 30.822 44.396 82.282 71.652 136.415 71.652h148.898 66.913c8.171 0 15.057-6.683 15.111-14.895.054-8.13-6.723-15.11-14.895-15.11z" fill="#2d4363"/></g></g><g><g><path d="m712.618 291.634c.021.042.042.085.063.127 4.35-7.533 8.698-15.066 13.048-22.599-.021 0-.043 0-.063 0-12.393 0-17.567 12.452-13.048 22.599.209.469.417.937.626 1.405 6.856 15.393 33.563 4.238 27.429-11.478-.145-.37-.289-.741-.434-1.111-9.144 3.826-18.286 7.652-27.429 11.478.075.194.164.381.268.562 3.9 7.185 13.662 9.373 20.535 5.344 7.668-4.496 8.618-13.05 5.344-20.535-.119-.272-.238-.545-.357-.817-4.35 7.533-8.698 15.066-13.048 22.599 2.785.224 5.562.5 8.336.83 4.549.542-2.874-.451 1.642.228 1.365.205 2.726.441 4.086.677 5.842 1.015 11.617 2.383 17.328 3.969 5.212 1.447 10.34 3.187 15.398 5.096 1.258.475 2.505.978 3.752 1.481-2.988-1.205 1.104.491 1.398.62 2.858 1.252 5.669 2.611 8.457 4.01 4.761 2.389 9.387 5.039 13.918 7.836 2.259 1.395 4.471 2.863 6.665 4.355 1.097.746 2.177 1.515 3.256 2.284.451.321 4.82 3.603 2.258 1.633 8.74 6.717 16.786 14.314 24.171 22.49 1.773 1.963 3.481 3.984 5.168 6.022.844 1.02 1.665 2.058 2.486 3.096-2.096-2.647.591.832.822 1.143 3.437 4.612 6.602 9.42 9.585 14.334 2.767 4.558 5.281 9.265 7.636 14.047 1.183 2.402 2.285 4.843 3.359 7.294 1.793 4.09-1.158-2.903.515 1.245.671 1.665 1.299 3.346 1.92 5.03 3.935 10.661 6.731 21.722 8.594 32.925.227 1.365.423 2.735.618 4.105-.486-3.405.126 1.162.166 1.528.312 2.784.526 5.577.709 8.371.399 6.105.423 12.231.214 18.344-.19 5.545-.694 11.076-1.388 16.579.403-3.203-.208 1.277-.255 1.577-.212 1.349-.454 2.693-.696 4.037-.562 3.119-1.24 6.216-1.965 9.301-1.231 5.24-2.756 10.408-4.45 15.517-.841 2.536-1.767 5.043-2.719 7.539-.476 1.244-.978 2.478-1.48 3.711 1.21-2.97-.935 2.053-1.16 2.555-4.52 10.024-10.057 19.574-16.308 28.613-.746 1.08-1.517 2.145-2.287 3.208-.218.302-2.847 3.771-.827 1.145-1.599 2.079-3.263 4.106-4.948 6.114-3.65 4.349-7.547 8.484-11.584 12.475-3.728 3.683-7.65 7.164-11.68 10.514-1.008.838-2.034 1.653-3.06 2.47 2.67-2.124-.765.558-1.094.804-2.451 1.838-4.968 3.586-7.509 5.298-9.127 6.147-18.866 11.357-28.95 15.747-4.062 1.768 2.916-1.167-1.201.482-1.237.495-2.485.963-3.732 1.432-2.504.938-5.038 1.793-7.581 2.62-5.556 1.805-11.216 3.275-16.919 4.531-2.659.586-5.337 1.08-8.019 1.544-1.349.234-2.702.437-4.056.639-4.502.675 3.073-.342-1.461.197-5.99.711-12.02 1.055-18.048 1.17-25.728.491-51.531-.316-77.262-.494-19.379-.135-19.537 29.872-.217 30.006 24.021.167 48.043.333 72.064.5 42.198.292 84.061-12.673 118.08-37.794 37.683-27.824 64.916-68.235 75.656-113.938 11.133-47.375 3.891-97.819-19.471-140.415-31.766-57.917-92.277-95.432-157.716-100.682-5.226-.419-10.573 3.13-13.099 7.503-2.915 5.048-2.167 10.025.051 15.095.119.272.238.545.357.817 8.626-5.063 17.253-10.127 25.879-15.19-.104-.18-.192-.368-.268-.562-6.899-15.372-33.563-4.24-27.429 11.478.145.37.289.741.434 1.111 9.144-3.826 18.286-7.652 27.429-11.478-.209-.469-.418-.937-.626-1.405-4.35 7.533-8.698 15.066-13.048 22.599h.063c12.002 0 18.084-12.525 13.048-22.599-.021-.042-.043-.085-.063-.127-3.658-7.316-13.843-9.267-20.535-5.344-7.397 4.337-8.995 13.227-5.341 20.533z" fill="#2d4363"/></g></g><g><g><path d="m367.316 335.53c2.961-6.915 6.36-13.599 10.203-20.065 1.908-3.209 3.967-6.326 6.093-9.395 1.061-1.532 2.168-3.031 3.281-4.525-1.727 2.318 1.663-2.037 1.988-2.436 4.698-5.768 9.862-11.144 15.304-16.209 2.723-2.534 5.564-4.938 8.455-7.278 1.38-1.095 1.457-1.158.23-.191.741-.564 1.487-1.121 2.238-1.672 1.498-1.109 3.029-2.173 4.564-3.229 6.167-4.244 12.676-7.973 19.37-11.317 1.683-.841 3.391-1.629 5.102-2.41.859-.388 1.722-.768 2.587-1.14-1.541.632-1.47.606.211-.076 3.518-1.421 7.104-2.669 10.712-3.836 7.316-2.365 14.825-4.1 22.4-5.389.53-.09 6.249-.888 3.245-.516 1.949-.241 3.905-.42 5.861-.59 4.456-.388 8.93-.529 13.4-.55 8.172-.038 15.058-6.655 15.112-14.896.053-8.102-6.724-15.148-14.896-15.111-69.189.316-134.073 41.913-161.442 105.832-3.215 7.509-2.216 16.041 5.49 20.49 6.449 3.722 17.268 2.039 20.492-5.491z" fill="#2d4363"/></g></g><g><g><path d="m252.67 383.299c.015-5.607.197-11.205.549-16.801.174-2.768.416-5.532.68-8.292.131-1.374.285-2.746.439-4.117.06-.535.78-6.076.345-2.965 1.566-11.204 3.977-22.282 7.034-33.17 1.449-5.16 3.104-10.261 4.881-15.316.884-2.516 1.828-5.01 2.791-7.496.481-1.24.981-2.473 1.481-3.705-1.208 2.976.894-2.067 1.114-2.571 4.407-10.083 9.552-19.834 15.235-29.253 2.715-4.499 5.604-8.891 8.592-13.211 1.492-2.157 3.034-4.279 4.592-6.388 2.584-3.5-1.813 2.32.843-1.125 1.066-1.383 2.157-2.746 3.251-4.107 6.835-8.497 14.278-16.496 22.144-24.044 3.776-3.624 7.691-7.102 11.683-10.485 1.998-1.693 4.034-3.34 6.083-4.971 3.409-2.713-2.393 1.821 1.072-.822 1.39-1.06 2.798-2.095 4.209-3.125 8.846-6.463 18.154-12.279 27.759-17.542 4.635-2.54 9.368-4.896 14.153-7.139 2.401-1.125 4.828-2.194 7.263-3.243 4.068-1.753-2.914 1.18 1.195-.488 1.645-.667 3.301-1.305 4.959-1.937 10.452-3.987 21.194-7.188 32.081-9.747 5.295-1.244 10.639-2.273 16.003-3.172 1.35-.227 2.703-.431 4.056-.635.389-.059 4.9-.675 1.45-.231 3.194-.411 6.399-.735 9.606-1.025 11.725-1.058 23.523-1.207 35.278-.647 13.192.627 20.859 1.674 32.527 3.946 11.298 2.2 22.417 5.268 33.303 8.994 2.587.886 5.152 1.835 7.71 2.805 1.275.484 2.543.988 3.811 1.493.261.104 4.415 1.84 1.494.603 5.415 2.292 10.729 4.818 15.97 7.484 10.02 5.097 19.649 10.94 28.899 17.322 1.476 1.018 2.932 2.063 4.385 3.112.726.526 1.447 1.056 2.167 1.59 3.576 2.639-2.29-1.792 1.229.921 3.188 2.458 6.298 5.018 9.366 7.625 6.131 5.21 11.971 10.757 17.58 16.523 5.612 5.769 10.902 11.846 15.941 18.12 1.079 1.37 1.113 1.402.101.097.548.708 1.092 1.419 1.632 2.133 1.355 1.782 2.674 3.593 3.981 5.41 2.357 3.276 4.61 6.625 6.809 10.01 18.437 28.381 28.621 54.526 34.796 88.479 1.466 8.056 10.963 12.592 18.371 10.606 8.388-2.247 12.069-10.33 10.607-18.371-17.06-93.792-85.066-171.791-174.345-203.993-45.436-16.389-95.278-19.127-142.536-9.888-45.259 8.848-87.375 30.393-122.287 60.298-58.477 50.089-92.129 125.484-92.338 202.237-.054 19.373 29.953 19.539 30.006.214z" fill="#2d4363"/></g></g><g><g><path d="m512.89 587.875v123.629c0 8.172 6.684 15.058 14.896 15.111 8.131.055 15.112-6.723 15.112-14.895 0-41.21 0-82.42 0-123.629 0-8.172-6.684-15.058-14.896-15.111-8.13-.055-15.112 6.723-15.112 14.895z" fill="#2d4363"/></g></g><g><g><path d="m465.27 625.937c36.75 24.567 73.5 49.135 110.25 73.701 6.802 4.547 16.604 1.239 20.49-5.49 4.287-7.426 1.301-15.95-5.49-20.49-36.75-24.567-73.5-49.135-110.25-73.701-6.802-4.547-16.605-1.239-20.49 5.49-4.287 7.426-1.301 15.95 5.49 20.49z" fill="#2d4363"/></g></g><g><g><path d="m575.424 600.007c-36.75 24.567-73.5 49.135-110.25 73.701-6.791 4.54-9.663 13.167-5.344 20.535 3.95 6.738 13.734 9.89 20.535 5.344 36.75-24.567 73.5-49.135 110.25-73.701 6.791-4.54 9.663-13.167 5.344-20.535-3.95-6.738-13.734-9.89-20.535-5.344z" fill="#2d4363"/></g></g><g><g><path d="m249.969 741.195v89.135c0 8.172 6.684 15.058 14.896 15.111 8.13.055 15.111-6.723 15.111-14.895 0-29.712 0-59.424 0-89.135 0-8.172-6.684-15.058-14.896-15.111-8.13-.054-15.111 6.723-15.111 14.895z" fill="#2d4363"/></g></g><g><g><path d="m217.728 772.292c26.497 17.713 52.993 35.426 79.489 53.139 6.801 4.547 16.605 1.239 20.49-5.49 4.287-7.426 1.301-15.95-5.49-20.49-26.497-17.713-52.993-35.426-79.489-53.139-6.801-4.547-16.605-1.239-20.49 5.49-4.287 7.425-1.301 15.949 5.49 20.49z" fill="#2d4363"/></g></g><g><g><path d="m297.122 746.362c-26.497 17.713-52.993 35.426-79.489 53.139-6.791 4.54-9.663 13.167-5.344 20.535 3.95 6.738 13.735 9.89 20.535 5.344 26.497-17.713 52.993-35.426 79.489-53.139 6.791-4.54 9.663-13.167 5.344-20.535-3.95-6.739-13.735-9.89-20.535-5.344z" fill="#2d4363"/></g></g><g><g><path d="m669.97 741.195v89.135c0 8.172 6.683 15.058 14.895 15.111 8.131.055 15.111-6.723 15.111-14.895 0-29.712 0-59.424 0-89.135 0-8.172-6.683-15.058-14.895-15.111-8.13-.054-15.111 6.723-15.111 14.895z" fill="#2d4363"/></g></g><g><g><path d="m637.728 772.292c26.496 17.713 52.993 35.426 79.489 53.139 6.802 4.547 16.604 1.239 20.49-5.49 4.287-7.426 1.301-15.95-5.49-20.49-26.496-17.713-52.993-35.426-79.489-53.139-6.801-4.547-16.605-1.239-20.49 5.49-4.287 7.425-1.301 15.949 5.49 20.49z" fill="#2d4363"/></g></g><g><g><path d="m717.122 746.362c-26.496 17.713-52.992 35.426-79.489 53.139-6.791 4.54-9.663 13.167-5.344 20.535 3.95 6.738 13.734 9.89 20.535 5.344 26.496-17.713 52.992-35.426 79.489-53.139 6.79-4.54 9.663-13.167 5.344-20.535-3.95-6.739-13.735-9.89-20.535-5.344z" fill="#2d4363"/></g></g></svg>