<svg id="Layer_1" enable-background="new 0 0 512.084 512.084" height="512" viewBox="0 0 512.084 512.084" width="512" xmlns="http://www.w3.org/2000/svg"><g><g><path d="m156.684 448.298h93.306v30h-93.306z" fill="#aed0ff" transform="matrix(.395 -.919 .919 .395 -302.602 467.373)"/></g><g><path d="m231.224 448.298h93.306v30h-93.306z" fill="#aed0ff" transform="matrix(.395 -.919 .919 .395 -257.468 535.864)"/></g><path d="m282.499 414.511-4.622 10.765v76.044l32.188-74.974z" fill="#6aa9ff"/><g><path d="m305.764 448.298h93.306v30h-93.306z" fill="#aed0ff" transform="matrix(.395 -.919 .919 .395 -212.334 604.362)"/></g><g><path d="m305.764 448.298h93.306v30h-93.306z" fill="#6aa9ff" transform="matrix(.395 -.919 .919 .395 -212.334 604.362)"/></g><path d="m332.475 181.216c-3.257-30.33-17.562-58.343-40.279-78.88-22.889-20.691-52.5-32.087-83.379-32.087-68.583 0-124.38 55.797-124.38 124.381 0 38.077 17.106 73.545 46.933 97.311l7.823 6.233 194.349-107.032z" fill="#fed943"/><path d="m332.475 181.216c-3.257-30.33-17.562-58.343-40.279-78.88-22.889-20.691-52.5-32.087-83.379-32.087v189.58l124.724-68.688z" fill="#fcbe2c"/><g><path d="m193.837 0h30v42.653h-30z" fill="#fcbe2c"/></g><g><path d="m107.183 23.208h30v42.653h-30z" fill="#fcbe2c" transform="matrix(.866 -.5 .5 .866 -5.898 67.058)"/></g><g><path d="m43.742 86.633h30v42.653h-30z" fill="#fcbe2c" transform="matrix(.5 -.866 .866 .5 -64.125 104.852)"/></g><g><path d="m14.187 179.609h42.654v30h-42.654z" fill="#fcbe2c"/></g><g><path d="m37.395 266.264h42.653v30h-42.653z" fill="#fcbe2c" transform="matrix(.866 -.5 .5 .866 -132.766 67.044)"/></g><g><path d="m337.585 92.996h42.653v30h-42.653z" fill="#fcbe2c" transform="matrix(.866 -.5 .5 .866 -5.912 193.926)"/></g><g><path d="m274.159 29.555h42.654v30h-42.654z" fill="#fcbe2c" transform="matrix(.5 -.866 .866 .5 109.156 278.175)"/></g><path d="m433.726 264.505c-4.332-24.943-16.661-47.808-35.409-65.305-21.7-20.25-50.004-31.403-79.7-31.403-23.764 0-46.638 7.096-66.15 20.521-15.881 10.926-28.683 25.416-37.488 42.322-1.519-.067-3.038-.101-4.553-.101-43.546 0-81.735 27.218-96.287 67.38-13.981 2.529-26.832 9.293-36.979 19.617-12.815 13.038-19.873 30.288-19.873 48.572 0 38.224 31.097 69.32 69.32 69.32h284.306c47.964 0 86.986-39.022 86.986-86.987-.001-39.603-26.872-73.818-64.173-83.936z" fill="#ebebf0"/><g><path d="m337.585 92.996h42.653v30h-42.653z" fill="#f7aa00" transform="matrix(.866 -.5 .5 .866 -5.912 193.926)"/></g><g><path d="m274.159 29.555h42.654v30h-42.654z" fill="#f7aa00" transform="matrix(.5 -.866 .866 .5 109.156 278.175)"/></g><path d="m208.816 0h15.021v42.653h-15.021z" fill="#f7aa00"/><path d="m433.726 264.505c-4.332-24.943-16.661-47.808-35.409-65.305-21.7-20.25-50.004-31.403-79.7-31.403-14.065 0-27.811 2.505-40.74 7.318v260.314h133.035c47.964 0 86.986-39.022 86.986-86.987 0-39.604-26.871-73.819-64.172-83.937z" fill="#d2d2d7"/></g></svg>