<svg id="Layer_1" viewBox="0 0 24 24" xmlns="http://www.w3.org/2000/svg" xmlns:xlink="http://www.w3.org/1999/xlink" data-name="Layer 1"><linearGradient id="linear-gradient" gradientUnits="userSpaceOnUse" x1="5.25" x2="3.86" y1="18.25" y2="22.74"><stop offset="0" stop-color="#36c2d6"/><stop offset=".43" stop-color="#89d3e2"/><stop offset="1" stop-color="#b6e2eb"/></linearGradient><linearGradient id="linear-gradient-2" x1="12.03" x2="10.64" xlink:href="#linear-gradient" y1="18.11" y2="22.61"/><linearGradient id="linear-gradient-3" x1="19.02" x2="17.63" xlink:href="#linear-gradient" y1="18.18" y2="22.68"/><radialGradient id="radial-gradient" cx="11.38" cy="2.95" gradientUnits="userSpaceOnUse" r="13.59"><stop offset="0" stop-color="#fafbfb"/><stop offset=".37" stop-color="#e9ecec"/><stop offset=".77" stop-color="#e3e6e7"/><stop offset="1" stop-color="#cfd8dc"/></radialGradient><path d="m6.37 18.05-1.9-.63c-.15-.05-.31-.03-.43.06-.13.08-.21.22-.22.38l-.32 4.11c-.02.23.12.44.34.51.05.02.11.03.16.03.17 0 .33-.08.42-.23l2.21-3.48c.08-.13.1-.29.05-.44s-.17-.26-.31-.31z" fill="url(#linear-gradient)"/><path d="m13.14 17.85-1.93-.53c-.15-.04-.31-.01-.43.08s-.2.24-.2.39l-.09 4.12c0 .23.15.43.37.49.04.01.09.02.13.02.18 0 .35-.09.44-.26l2.02-3.6c.08-.13.08-.3.02-.44s-.18-.25-.33-.29z" fill="url(#linear-gradient-2)"/><path d="m20.46 18.21c-.06-.14-.18-.25-.33-.29l-1.93-.53c-.15-.04-.31-.01-.43.08s-.2.24-.2.39l-.09 4.12c0 .23.15.43.37.49.04.01.09.02.13.02.18 0 .35-.09.44-.26l2.02-3.6c.08-.13.08-.3.02-.44z" fill="url(#linear-gradient-3)"/><path d="m16.68 4.51c-.55-.88-1.63-2.2-3.43-2.75-.57-.17-1.16-.26-1.75-.26-3.31 0-6 2.69-6 6v.03c-1 .11-1.93.56-2.67 1.29-.86.85-1.33 1.98-1.33 3.18 0 2.48 2.02 4.5 4.5 4.5h10.5c3.31-.01 6-2.7 6-6 0-1.6-.64-3.11-1.8-4.25-1.09-1.08-2.51-1.69-4.02-1.74z" fill="url(#radial-gradient)"/></svg>