<svg id="Layer_2" enable-background="new 0 0 512 512" height="512" viewBox="0 0 512 512" width="512" xmlns="http://www.w3.org/2000/svg"><g><path d="m439.985 151.157c.005-.386.015-.77.015-1.157 0-50.81-41.19-92-92-92-9.425 0-18.517 1.42-27.078 4.053-25.666-31.746-64.919-52.053-108.922-52.053-77.32 0-140 62.68-140 140 0 .387.012.771.015 1.157-35.115 6.198-62.015 37.021-62.015 73.843 0 41.25 33.75 75 75 75h342c41.25 0 75-33.75 75-75 0-36.822-26.9-67.645-62.015-73.843z" fill="#edeff1"/><g fill="#80d6fb"><path d="m163.997 403.172h184.007v20h-184.007z" transform="matrix(.383 -.924 .924 .383 -223.688 491.572)"/><path d="m142.082 403.172h92.003v20h-92.003z" transform="matrix(.383 -.924 .924 .383 -265.614 428.825)"/><path d="m277.915 403.172h92.003v20h-92.003z" transform="matrix(.383 -.924 .924 .383 -181.763 554.314)"/><path d="m488.301 373.66-10-17.32-28.301 16.34v-32.68h-20v32.68l-28.301-16.34-10 17.32 28.301 16.34-28.301 16.34 10 17.32 28.301-16.34v32.68h20v-32.68l28.301 16.34 10-17.32-28.301-16.34z"/><path d="m110.301 356.34-28.301 16.34v-32.68h-20v32.68l-28.301-16.34-10 17.32 28.301 16.34-28.301 16.34 10 17.32 28.301-16.34v32.68h20v-32.68l28.301 16.34 10-17.32-28.301-16.34 28.301-16.34z"/></g></g></svg>