<svg fill="none" height="24" viewBox="0 0 24 24" width="24" xmlns="http://www.w3.org/2000/svg"><g clip-rule="evenodd" fill-rule="evenodd"><path d="m11.107 1.25c-3.37335 0-6.18135 2.53144-6.39205 5.78536-1.68657.32932-2.98888 1.76608-2.98888 3.53604 0 2.0208 1.69743 3.6072 3.7262 3.6072h1.78571 10.11902c.5478 0 1.0705-.1149 1.5419-.3225 1.956-.7122 3.3748-2.5408 3.3748-4.71324 0-2.80971-2.3637-5.03572-5.2143-5.03572-.18 0-.358.00883-.5336.0261-1.1383-1.73901-3.1458-2.88324-5.4188-2.88324z" fill="#eceff1"/><g fill="#4dc4ff"><path d="m15.9666 16.4881c.4142 0 .75.3358.75.75v4.7619c0 .4142-.3358.75-.75.75-.4143 0-.75-.3358-.75-.75v-4.7619c0-.4142.3357-.75.75-.75z"/><path d="m13.2551 18.0536c.2071-.3587.6658-.4817 1.0245-.2745l4.124 2.3809c.3587.2071.4816.6658.2745 1.0245s-.6658.4817-1.0245.2745l-4.124-2.3809c-.3587-.2071-.4816-.6658-.2745-1.0245z"/><path d="m18.6782 18.0536c-.2071-.3587-.6658-.4817-1.0245-.2745l-4.1239 2.3809c-.3587.2071-.4817.6658-.2745 1.0245.2071.3587.6658.4817 1.0245.2745l4.1239-2.3809c.3587-.2071.4816-.6658.2745-1.0245z"/><path d="m8.34741 15.0595c.41422 0 .75.3358.75.75v4.7619c0 .4143-.33578.75-.75.75-.41421 0-.75-.3357-.75-.75v-4.7619c0-.4142.33579-.75.75-.75z"/><path d="m5.63599 16.625c.2071-.3587.6658-.4816 1.02452-.2745l4.12389 2.3809c.3588.2071.4817.6658.2746 1.0245-.2072.3588-.6658.4817-1.0246.2746l-4.12389-2.381c-.35872-.2071-.48163-.6658-.27452-1.0245z"/><path d="m11.0591 16.625c-.2071-.3587-.6658-.4816-1.0245-.2745l-4.12397 2.3809c-.35872.2071-.48162.6658-.27452 1.0245.20711.3588.6658.4817 1.02452.2746l4.12397-2.381c.3587-.2071.4816-.6658.2745-1.0245z"/></g></g></svg>