<svg height="512" viewBox="0 0 64 64" width="512" xmlns="http://www.w3.org/2000/svg"><g id="Snow"><path d="m59.85 27.887a11.53665 11.53665 0 0 1 -10.07 9.46 12.5 12.5 0 0 1 -1.51.09h-34.94a9.34907 9.34907 0 0 1 -.71-18.67 9.63951 9.63951 0 0 1 2.59.16 1.1038 1.1038 0 0 0 1.34-.94 15.54887 15.54887 0 0 1 29.86-4.08 1.15268 1.15268 0 0 0 1.18006.72c.33-.03.67-.04 1-.04a11.42619 11.42619 0 0 1 11.25994 13.3z" fill="#c6c6c6"/><path d="m13.33331 37.4403h31.50986c5.64365 0 11.893-3.96006 12.72206-9.552.93477-6.30513-3.2188-12.60308-10.56523-11.96518a1.15068 1.15068 0 0 1 -1.17973-.72005c-2.3132-5.69796-7.30079-11.00457-13.82027-11.00457a15.56736 15.56736 0 0 0 -15.45324 13.786 1.10531 1.10531 0 0 1 -1.33681.947 9.34833 9.34833 0 1 0 -1.87664 18.5088z" fill="#ebeff2"/><path d="m19.17738 16.252a13.4539 13.4539 0 0 1 8.48426-9.25739 1 1 0 0 1 .67941 1.881 11.45108 11.45108 0 0 0 -7.22687 7.87879 1.00046 1.00046 0 0 1 -1.9368-.5024z" fill="#fff"/><path d="m31.86072 7.11777a1 1 0 1 1 -1.0173-.9824 1 1 0 0 1 1.0173.9824z" fill="#fff"/><path d="m15.53 45.88-.47-.27c-.01-.01-.02-.01-.03-.02l-1.03-.59 1.53-.88a1.00375 1.00375 0 1 0 -1-1.74l-1.53.89v-1.77a.91746.91746 0 0 0 -.69-.94.95877.95877 0 0 0 -1.29.71 1.64016 1.64016 0 0 0 -.02.23v1.77l-1.53-.89a1.00348 1.00348 0 0 0 -1 1.74l1.53.88-1.53.88a1.00352 1.00352 0 0 0 1 1.74l1.53-.89v1.77a1.64008 1.64008 0 0 0 .02.23.91671.91671 0 0 0 .4.59 1.00493 1.00493 0 0 0 1.58-.82v-1.77l1.53.89a1.00352 1.00352 0 0 0 1-1.74z" fill="#699e9e"/><path d="m15.06 45.75564c-.01-.01-.02-.01-.03-.02l-1.03-.59-.5-.29 1.53-.88995a.97134.97134 0 0 0 .19995-1.57 1.02184 1.02184 0 0 0 -.69995.13l-1.53.88992-.26.14a.16939.16939 0 0 1 -.24-.15v-2.05c0-.29-.04-.55-.19-.65a.95877.95877 0 0 0 -1.29.71 1.64029 1.64029 0 0 0 -.02.23v1.77l-1.53-.88995a1.00348 1.00348 0 0 0 -1 1.74l1.53.88-1.53.88a1.00352 1.00352 0 0 0 1 1.74l1.53-.89v1.77a.93486.93486 0 0 0 .42.82c.44.17 1.08-.25 1.08-1.11005v-1.48408a.16488.16488 0 0 1 .2473-.14245l.2527.14655 1.03.59a.99843.99843 0 0 0 1.03-1.70999z" fill="#8ac4d0"/><path d="m25.53065 55.88058-.47-.27c-.01-.01-.02-.01-.03-.02l-1.03-.59 1.53-.88a1.00374 1.00374 0 1 0 -1-1.74l-1.53.88995v-1.77a.91748.91748 0 0 0 -.69-.94.95876.95876 0 0 0 -1.29.71 1.6403 1.6403 0 0 0 -.02.23v1.77l-1.53-.88995a1.00348 1.00348 0 0 0 -1 1.74l1.53.88-1.53.88a1.00352 1.00352 0 0 0 1 1.74l1.53-.89v1.77a1.64022 1.64022 0 0 0 .02.23.91663.91663 0 0 0 .4.59 1.00492 1.00492 0 0 0 1.58-.82v-1.77l1.53.89a1.00352 1.00352 0 0 0 1-1.74z" fill="#699e9e"/><path d="m25.06061 55.61056c-.01-.01-.02-.01-.03-.02l-1.03-.59-.5-.29 1.53-.89a.97133.97133 0 0 0 .19995-1.57 1.02189 1.02189 0 0 0 -.69995.13l-1.53.88995-.26.14a.16939.16939 0 0 1 -.24-.15v-2.05c0-.29-.04-.55-.19-.65a.95876.95876 0 0 0 -1.29.71 1.6403 1.6403 0 0 0 -.02.23v1.77l-1.53-.88995a1.00348 1.00348 0 0 0 -1 1.74l1.53.88-1.53.88a1.00352 1.00352 0 0 0 1 1.74l1.53-.89v1.77a.93485.93485 0 0 0 .42.82c.44.17 1.08-.25 1.08-1.11v-1.4841a.16487.16487 0 0 1 .24729-.14246l.25271.14656 1.03.59a.99843.99843 0 0 0 1.03-1.71z" fill="#8ac4d0"/><path d="m35.53113 45.88058-.47-.27c-.01-.01-.02-.01-.03-.02l-1.03-.59 1.53-.88a1.00374 1.00374 0 1 0 -1-1.74l-1.53.88995v-1.77a.91748.91748 0 0 0 -.69-.94.95876.95876 0 0 0 -1.29.71 1.6403 1.6403 0 0 0 -.02.23v1.77l-1.53-.88995a1.00348 1.00348 0 0 0 -1 1.74l1.53.88-1.53.88a1.00352 1.00352 0 0 0 1 1.74l1.53-.89v1.77a1.64022 1.64022 0 0 0 .02.23.91663.91663 0 0 0 .4.59 1.00492 1.00492 0 0 0 1.58-.82v-1.77l1.53.89a1.00352 1.00352 0 0 0 1-1.74z" fill="#699e9e"/><path d="m35.0611 45.75622c-.01-.01-.02-.01-.03-.02l-1.03-.59-.5-.29 1.53-.88995a.97133.97133 0 0 0 .2-1.57 1.02192 1.02192 0 0 0 -.7.13l-1.53.89-.26.14a.16939.16939 0 0 1 -.24-.15v-2.05c0-.29-.04-.55-.19-.65a.95876.95876 0 0 0 -1.29.71 1.64016 1.64016 0 0 0 -.02.23v1.77l-1.53-.89a1.00348 1.00348 0 0 0 -1 1.74l1.53.88-1.53.88a1.00352 1.00352 0 0 0 1 1.74l1.53-.89v1.77a.93487.93487 0 0 0 .42.82c.44.17 1.08-.25 1.08-1.11005v-1.48411a.16488.16488 0 0 1 .24729-.14246l.25271.14656 1.03.59a.99843.99843 0 0 0 1.03-1.70999z" fill="#8ac4d0"/><path d="m45.53135 55.88058-.47-.27c-.01-.01-.02-.01-.03-.02l-1.03-.59 1.53-.88a1.00374 1.00374 0 1 0 -1-1.74l-1.53.88995v-1.77a.91748.91748 0 0 0 -.69-.94.95876.95876 0 0 0 -1.29.71 1.6403 1.6403 0 0 0 -.02.23v1.77l-1.53-.88995a1.00348 1.00348 0 0 0 -1 1.74l1.53.88-1.53.88a1.00352 1.00352 0 0 0 1 1.74l1.53-.89v1.77a1.64022 1.64022 0 0 0 .02.23.91663.91663 0 0 0 .4.59 1.00492 1.00492 0 0 0 1.58-.82v-1.77l1.53.89a1.00352 1.00352 0 0 0 1-1.74z" fill="#699e9e"/><path d="m45.06131 55.61056c-.01-.01-.02-.01-.03-.02l-1.03-.59-.5-.29 1.53-.89a.97133.97133 0 0 0 .19995-1.57 1.02189 1.02189 0 0 0 -.69995.13l-1.53.88995-.26.14a.16939.16939 0 0 1 -.24-.15v-2.05c0-.29-.04-.55-.19-.65a.95876.95876 0 0 0 -1.29.71 1.6403 1.6403 0 0 0 -.02.23v1.77l-1.53-.88995a1.00348 1.00348 0 0 0 -1 1.74l1.53.88-1.53.88a1.00352 1.00352 0 0 0 1 1.74l1.53-.89v1.77a.93485.93485 0 0 0 .42.82c.44.17 1.08-.25 1.08-1.11v-1.4841a.16487.16487 0 0 1 .24729-.14246l.25271.14656 1.03.59a.99843.99843 0 0 0 1.03-1.71z" fill="#8ac4d0"/><path d="m55.53135 45.81542-.47-.27c-.01-.01-.02-.01-.03-.02l-1.03-.59 1.53-.88a1.00374 1.00374 0 1 0 -1-1.74l-1.53.89v-1.77a.91746.91746 0 0 0 -.69-.94.95876.95876 0 0 0 -1.29.71 1.64 1.64 0 0 0 -.02.23v1.77l-1.53-.89a1.00348 1.00348 0 0 0 -1 1.74l1.53.88-1.53.88a1.00352 1.00352 0 0 0 1 1.74l1.53-.89v1.77a1.64022 1.64022 0 0 0 .02.23.91668.91668 0 0 0 .4.59 1.00493 1.00493 0 0 0 1.58-.82v-1.77l1.53.89a1.00352 1.00352 0 0 0 1-1.74z" fill="#699e9e"/><path d="m55.06131 45.69106c-.01-.01-.02-.01-.03-.02l-1.03-.59-.5-.29 1.53-.88995a.97134.97134 0 0 0 .19995-1.57 1.02184 1.02184 0 0 0 -.69995.13l-1.53.88995-.26.14a.1694.1694 0 0 1 -.24-.15v-2.05c0-.29-.04-.55-.19-.65a.95876.95876 0 0 0 -1.29.71 1.64029 1.64029 0 0 0 -.02.23v1.77l-1.53-.88995a1.00348 1.00348 0 0 0 -1 1.74l1.53.88-1.53.88a1.00352 1.00352 0 0 0 1 1.74l1.53-.89v1.77a.93486.93486 0 0 0 .42.82c.44.17 1.08-.25 1.08-1.11005v-1.48406a.16487.16487 0 0 1 .24729-.14245l.25271.14655 1.03.59a.99843.99843 0 0 0 1.03-1.71004z" fill="#8ac4d0"/></g></svg>