<svg id="Capa_1" enable-background="new 0 0 512 512" height="512" viewBox="0 0 512 512" width="512" xmlns="http://www.w3.org/2000/svg"><path d="m417 250h-182.907c-8.284 0-15-6.716-15-15v-134.475c0-3.273 1.067-6.404 2.969-8.958 1.81-50.801 43.703-91.567 94.938-91.567 21.847 0 43.178 7.605 60.063 21.414 12.768 10.442 22.594 24.07 28.508 39.3 3.814-.475 7.63-.714 11.429-.714 52.383 0 95 42.617 95 95s-42.617 95-95 95z" fill="#bbe3f8"/><path d="m417 60c-3.799 0-7.615.239-11.43.713-5.914-15.229-15.74-28.858-28.508-39.3-16.884-13.808-38.215-21.413-60.062-21.413-23.201 0-44.485 8.359-61 22.224v227.776h161c52.383 0 95-42.617 95-95s-42.617-95-95-95z" fill="#a0d0e8"/><path d="m298.141 464.01-12.141-7.01 12.141-7.01c7.175-4.142 9.633-13.316 5.49-20.49-4.143-7.175-13.316-9.631-20.49-5.49l-12.141 7.009v-14.019c0-8.284-6.716-15-15-15s-15 6.716-15 15v14.019l-12.141-7.01c-7.174-4.143-16.348-1.685-20.49 5.49-4.143 7.174-1.685 16.348 5.49 20.49l12.141 7.011-12.141 7.01c-7.175 4.142-9.633 13.316-5.49 20.49 2.778 4.813 7.82 7.502 13.004 7.502 2.545 0 5.124-.648 7.486-2.012l12.141-7.01v14.02c0 8.284 6.716 15 15 15s15-6.716 15-15v-14.019l12.141 7.01c2.362 1.364 4.941 2.012 7.486 2.012 5.184 0 10.226-2.69 13.004-7.502 4.142-7.175 1.684-16.349-5.49-20.491z" fill="#d2f5ff"/><path d="m428.141 344.01-12.141-7.01 12.141-7.01c7.175-4.142 9.633-13.316 5.49-20.49-4.143-7.175-13.316-9.632-20.49-5.49l-12.141 7.009v-14.019c0-8.284-6.716-15-15-15s-15 6.716-15 15v14.019l-12.141-7.01c-7.174-4.144-16.349-1.685-20.49 5.49-4.143 7.174-1.685 16.348 5.49 20.49l12.141 7.011-12.141 7.01c-7.175 4.142-9.633 13.316-5.49 20.49 2.778 4.813 7.82 7.502 13.004 7.502 2.545 0 5.124-.648 7.486-2.012l12.141-7.01v14.02c0 8.284 6.716 15 15 15s15-6.716 15-15v-14.019l12.141 7.01c2.362 1.364 4.941 2.012 7.486 2.012 5.184 0 10.226-2.69 13.004-7.502 4.142-7.175 1.684-16.349-5.49-20.491z" fill="#bbe3f8"/><path d="m168.141 344.01-12.141-7.01 12.141-7.01c7.175-4.142 9.633-13.316 5.49-20.49-4.143-7.175-13.316-9.632-20.49-5.49l-12.141 7.009v-14.019c0-8.284-6.716-15-15-15s-15 6.716-15 15v14.019l-12.141-7.01c-7.175-4.144-16.348-1.685-20.49 5.49-4.143 7.174-1.685 16.348 5.49 20.49l12.141 7.011-12.141 7.01c-7.175 4.142-9.633 13.316-5.49 20.49 2.778 4.813 7.82 7.502 13.004 7.502 2.545 0 5.124-.648 7.486-2.012l12.141-7.01v14.02c0 8.284 6.716 15 15 15s15-6.716 15-15v-14.019l12.141 7.01c2.362 1.364 4.941 2.012 7.486 2.012 5.184 0 10.226-2.69 13.004-7.502 4.142-7.175 1.684-16.349-5.49-20.491z" fill="#d2f5ff"/><g fill="#bbe3f8"><circle cx="461" cy="282" r="15"/><circle cx="481" cy="362" r="15"/><circle cx="461" cy="432" r="15"/><circle cx="361" cy="432" r="15"/><circle cx="411" cy="482" r="15"/></g><circle cx="31" cy="302" fill="#d2f5ff" r="15"/><circle cx="41" cy="392" fill="#d2f5ff" r="15"/><circle cx="151" cy="432" fill="#d2f5ff" r="15"/><circle cx="221" cy="372" fill="#d2f5ff" r="15"/><circle cx="291" cy="342" fill="#bbe3f8" r="15"/><circle cx="241" cy="302" fill="#d2f5ff" r="15"/><circle cx="81" cy="472" fill="#d2f5ff" r="15"/><path d="m245 250h-180c-35.841 0-65-29.159-65-65 0-31.289 22.22-57.484 51.71-63.634 6.082-23.753 27.668-41.366 53.29-41.366 8.306 0 16.388 1.878 23.735 5.429 14.078-15.971 34.495-25.429 56.265-25.429 36.736 0 67.389 26.551 73.777 61.469 29.247 6.336 51.223 32.415 51.223 63.531 0 35.841-29.159 65-65 65z" fill="#d2f5ff"/><path d="m258.777 121.469c-.665-3.634-1.607-7.171-2.777-10.604v138.185c30.618-5.243 54-31.959 54-64.05 0-31.116-21.976-57.195-51.223-63.531z" fill="#bbe3f8"/><path d="m271 497v-14.019l12.141 7.01c2.362 1.364 4.941 2.012 7.486 2.012 5.184 0 10.226-2.69 13.004-7.502 4.143-7.174 1.685-16.348-5.49-20.49l-12.141-7.011 12.141-7.01c7.175-4.142 9.633-13.316 5.49-20.49-4.143-7.175-13.316-9.631-20.49-5.49l-12.141 7.009v-14.019c0-8.284-6.716-15-15-15v110c8.284 0 15-6.716 15-15z" fill="#bbe3f8"/></svg>