<svg id="Capa_1" enable-background="new 0 0 512 512" height="512" viewBox="0 0 512 512" width="512" xmlns="http://www.w3.org/2000/svg"><g fill="#a0c8ff"><path d="m142.217 124.3-22.909-59.499-22.909 59.499c-1.118 2.814-1.739 5.88-1.739 9.092 0 13.613 11.035 24.648 24.648 24.648s24.648-11.035 24.648-24.648c0-3.213-.621-6.278-1.739-9.092z"/><path d="m436.769 69.499-22.909-59.499-22.91 59.499c-1.118 2.814-1.739 5.88-1.739 9.092 0 13.613 11.035 24.648 24.648 24.648s24.648-11.035 24.648-24.648c.001-3.212-.62-6.278-1.738-9.092z"/><path d="m382.308 278.255-22.909-59.499-22.909 59.499c-1.118 2.814-1.739 5.88-1.739 9.092 0 13.613 11.035 24.648 24.648 24.648s24.648-11.035 24.648-24.648c0-3.212-.621-6.278-1.739-9.092z"/></g><path d="m487.665 277.892c-35.408-11.83-72.872-15.294-109.503-10.391l-18.768-48.749-22.283 57.897c-.134.041-.267.082-.401.123l-3.484 1.12c-48.944-16.342-101.795-16.723-150.965-1.12l-3.495 1.12c-48.924-16.342-101.774-16.723-150.945-1.12l-3.495 1.12c15.746-58.113 46.375-97.714 80.334-124.684 4.091 3.043 9.158 4.831 14.646 4.831 13.608 0 24.647-11.038 24.647-24.647 0-1.84-.206-3.628-.596-5.345 72.05-37.854 158.951-36.95 230.292 2.703 46.222 25.707 93.162 70.19 114.016 147.142z" fill="#ffc145"/><path d="m276.011 100.618h-40.029v-20.806c0-11.054 8.961-20.014 20.014-20.014 11.054 0 20.014 8.961 20.014 20.014v20.806z" fill="#868eaf"/><path d="m413.86 113.239c19.104 0 34.647-15.543 34.647-34.648 0-4.378-.815-8.66-2.423-12.729l-22.892-59.455c-1.487-3.86-5.196-6.407-9.332-6.407s-7.846 2.547-9.332 6.407l-22.893 59.454c-1.608 4.067-2.424 8.351-2.424 12.729 0 19.106 15.543 34.649 34.649 34.649zm-13.617-40.047c.014-.033.026-.066.039-.101l13.578-35.261 13.577 35.262c.013.033.025.065.038.098.685 1.726 1.032 3.543 1.032 5.401 0 8.077-6.571 14.648-14.647 14.648-8.077 0-14.648-6.571-14.648-14.648-.001-1.859.347-3.675 1.031-5.399z"/><path d="m497.317 275.277c-10.004-36.917-26.655-69.419-49.489-96.604-18.943-22.552-42.265-41.615-69.319-56.662-28.52-15.853-60.068-26.006-92.497-29.896v-12.303c0-16.55-13.464-30.015-30.014-30.015s-30.015 13.465-30.015 30.015v12.31c-26.642 3.196-52.707 10.613-76.981 21.968l-20.362-52.882c-1.486-3.86-5.196-6.407-9.332-6.407s-7.846 2.547-9.332 6.407l-22.893 59.455c-1.608 4.068-2.423 8.351-2.423 12.729 0 6.932 2.054 13.389 5.574 18.811-36.628 31.796-62.029 73.145-75.558 123.075-1.316 4.857 1.321 10.036 5.973 11.884 3.539 1.405 6.791.235 10.198-.857 10.026-3.182 20.387-5.709 30.793-7.513 5.442-.943 9.088-6.12 8.145-11.562-.944-5.442-6.121-9.089-11.561-8.146-6.325 1.097-12.635 2.439-18.879 4.018 13.644-39.29 35.902-72.114 66.363-97.827 4.276 1.831 8.95 2.766 13.6 2.766 1.749 0 3.467-.133 5.147-.384 16.532-2.484 29.262-17.046 29.496-33.767 18.84-9.208 38.908-15.784 59.531-19.615-2.032 2.668-4 5.552-5.897 8.666-9.466 15.535-17.34 36.912-23.405 63.537-7.237 31.77-10.177 63.132-11.29 79.107-7.707-2.254-15.565-4.16-23.466-5.676-5.421-1.052-10.665 2.512-11.706 7.935-1.041 5.424 2.512 10.665 7.936 11.706 10.15 1.949 20.226 4.583 29.945 7.83 2.016.672 4.196.686 6.22.037l3.467-1.111c21.051-6.679 42.609-10.318 64.202-10.932v196.761c0 10.955-8.912 19.867-19.867 19.867s-19.867-8.912-19.867-19.867c0-5.522-4.477-10-10-10s-10 4.478-10 10c0 21.982 17.884 39.867 39.867 39.867s39.867-17.885 39.867-39.867v-196.461c18.618 1.085 37.153 4.423 55.303 10.02-.917 19.466 15.111 36.302 34.608 36.302 19.105 0 34.648-15.543 34.648-34.648 0-3.857-.634-7.639-1.885-11.266 31.113-2.423 62.78 1.422 92.334 11.296 7.424 2.478 14.874-4.53 12.821-12.101zm-251.335-195.465c0-5.522 4.493-10.015 10.015-10.015s10.014 4.492 10.014 10.015v10.71c-2.374-.094-4.749-.16-7.127-.187-4.305-.05-8.607.018-12.902.189zm-140.289 48.178c.013-.032.025-.064.038-.098l13.577-35.262 13.577 35.262c.013.033.025.066.039.1.296.746.517 1.512.686 2.289 2.028 8.964-5.166 17.758-14.303 17.758-7.921 0-14.647-6.672-14.647-14.647 0-1.859.348-3.676 1.033-5.402zm119.02 5.275c9.307-15.238 19.539-22.646 31.283-22.646 16.247 0 39.265 13.942 56.657 80.366 7.562 28.88 11.325 58.108 12.975 74.087-43.437-12.429-88.761-13.046-132.494-1.816 1.268-16.276 4.205-44.589 10.598-72.57 5.589-24.455 12.647-43.774 20.981-57.421zm134.686 168.73c-8.076 0-14.647-6.571-14.647-14.648 0-1.858.348-3.676 1.033-5.402.013-.032.024-.064.037-.097l13.575-35.256s9.463 24.566 9.476 24.599l4.104 10.657c.013.033.025.066.039.1.685 1.725 1.032 3.541 1.032 5.399-.001 8.077-6.572 14.648-14.649 14.648zm25.311-45.332-15.979-41.5c-3.219-8.36-15.45-8.365-18.67-.003l-7.966 20.698c-2.232-14.765-5.453-32.164-10.029-49.687-6.95-26.621-15.631-47.988-25.801-63.509-1.882-2.871-3.819-5.545-5.808-8.033 23.91 4.657 47.041 13.027 68.332 24.861 50.221 27.931 85.094 69.46 103.861 123.601-28.622-7.207-58.576-9.411-87.94-6.428z"/><path d="m114.476 261.55c-2.097-5.029-8.016-7.499-13.06-5.41-5.025 2.081-7.495 8.039-5.4 13.061 2.1 5.033 8.003 7.494 13.05 5.409 5.028-2.077 7.507-8.032 5.41-13.06z"/></svg>