<svg id="_30_Umbrella" enable-background="new 0 0 512 512" viewBox="0 0 512 512" xmlns="http://www.w3.org/2000/svg" xmlns:xlink="http://www.w3.org/1999/xlink"><linearGradient id="lg1"><stop offset="0" stop-color="#766e6e"/><stop offset=".2493" stop-color="#716b6b"/><stop offset=".5076" stop-color="#656464"/><stop offset=".769" stop-color="#505757"/><stop offset="1" stop-color="#384949"/></linearGradient><linearGradient id="SVGID_1_" gradientTransform="matrix(1 0 0 -1 -624.303 772.595)" gradientUnits="userSpaceOnUse" x1="868.998" x2="890.477" xlink:href="#lg1" y1="706.31" y2="706.31"/><linearGradient id="SVGID_00000041991853145705642390000013540898397728818867_" gradientTransform="matrix(1 0 0 -1 0 514)" gradientUnits="userSpaceOnUse" x1="243.507" x2="261.892" xlink:href="#lg1" y1="151.487" y2="151.487"/><linearGradient id="SVGID_00000150100136274420251630000005394769774840245669_" gradientTransform="matrix(1 0 0 -1 0 514)" gradientUnits="userSpaceOnUse" x1="256" x2="256" y1="226.953" y2="256.686"><stop offset="0" stop-color="#464646" stop-opacity="0"/><stop offset=".6727" stop-color="#252529" stop-opacity=".463"/><stop offset="1" stop-color="#000009"/></linearGradient><linearGradient id="SVGID_00000085220734379151239940000003910472018242060705_" gradientTransform="matrix(1 0 0 -1 0 514)" gradientUnits="userSpaceOnUse" x1="205.779" x2="271.18" y1="77.099" y2="33.357"><stop offset="0" stop-color="#d1f19e"/><stop offset=".1798" stop-color="#cef099"/><stop offset=".3662" stop-color="#c8ed8d"/><stop offset=".5556" stop-color="#bee878"/><stop offset=".7471" stop-color="#b0e25b"/><stop offset=".9383" stop-color="#9dda36"/><stop offset="1" stop-color="#97d729"/></linearGradient><linearGradient id="lg2"><stop offset="0" stop-color="#78a91f" stop-opacity="0"/><stop offset=".1488" stop-color="#78a91f" stop-opacity=".025"/><stop offset=".3031" stop-color="#78a91f" stop-opacity=".098"/><stop offset=".4599" stop-color="#78a91f" stop-opacity=".221"/><stop offset=".6185" stop-color="#78a91f" stop-opacity=".393"/><stop offset=".7784" stop-color="#78a91f" stop-opacity=".615"/><stop offset=".9373" stop-color="#78a91f" stop-opacity=".882"/><stop offset="1" stop-color="#78a91f"/></linearGradient><linearGradient id="SVGID_00000028317590300465759170000017200729908749424266_" gradientTransform="matrix(1 0 0 -1 0 514)" gradientUnits="userSpaceOnUse" x1="244.781" x2="276.493" xlink:href="#lg2" y1="50.773" y2="50.773"/><linearGradient id="SVGID_00000139980312527720847320000009939213483657580469_" gradientTransform="matrix(1 0 0 -1 0 514)" gradientUnits="userSpaceOnUse" x1="231.32" x2="272.938" xlink:href="#lg2" y1="62.891" y2="17.875"/><linearGradient id="SVGID_00000038374677951148295600000013870463703939906722_" gradientTransform="matrix(1 0 0 -1 0 514)" gradientUnits="userSpaceOnUse" x1="152.903" x2="304.089" y1="437.823" y2="185.563"><stop offset="0" stop-color="#fef48b"/><stop offset=".1646" stop-color="#fdf286"/><stop offset=".3352" stop-color="#fdee7a"/><stop offset=".5086" stop-color="#fce765"/><stop offset=".6839" stop-color="#fcde48"/><stop offset=".8589" stop-color="#fbd123"/><stop offset="1" stop-color="#fac600"/></linearGradient><linearGradient id="lg3"><stop offset="0" stop-color="#fe9738" stop-opacity="0"/><stop offset=".1207" stop-color="#fe9738" stop-opacity=".016"/><stop offset=".2459" stop-color="#fe9738" stop-opacity=".065"/><stop offset=".3731" stop-color="#fe9738" stop-opacity=".147"/><stop offset=".5018" stop-color="#fe9738" stop-opacity=".262"/><stop offset=".6317" stop-color="#fe9738" stop-opacity=".41"/><stop offset=".7625" stop-color="#fe9738" stop-opacity=".59"/><stop offset=".8916" stop-color="#fe9738" stop-opacity=".8"/><stop offset="1" stop-color="#fe9738"/></linearGradient><linearGradient id="SVGID_00000167374176187905426460000004860613161788377249_" gradientTransform="matrix(1 0 0 -1 0 514)" gradientUnits="userSpaceOnUse" x1="407.606" x2="458.001" xlink:href="#lg3" y1="351.076" y2="360.702"/><linearGradient id="SVGID_00000122679180889482374040000010568169860621114268_" gradientTransform="matrix(1 0 0 -1 0 514)" gradientUnits="userSpaceOnUse" x1="256" x2="256" xlink:href="#lg3" y1="285.276" y2="228.649"/><linearGradient id="SVGID_00000163066340853290936900000001930538155900150679_" gradientTransform="matrix(1 0 0 -1 0 514)" gradientUnits="userSpaceOnUse" x1="314.501" x2="406.232" xlink:href="#lg3" y1="339.313" y2="341.436"/><linearGradient id="SVGID_00000062182356498521506410000005256702087736218815_" gradientTransform="matrix(1 0 0 -1 0 514)" gradientUnits="userSpaceOnUse" x1="128.657" x2="204.674" xlink:href="#lg3" y1="358.41" y2="291.31"/><linearGradient id="SVGID_00000163045689832327201310000005301230835074649527_" gradientTransform="matrix(1 0 0 -1 0 514)" gradientUnits="userSpaceOnUse" x1="187.354" x2="244.261" xlink:href="#lg3" y1="337.375" y2="300.003"/><linearGradient id="lg4"><stop offset="0" stop-color="#fff" stop-opacity="0"/><stop offset=".1205" stop-color="#fff" stop-opacity=".016"/><stop offset=".2454" stop-color="#fff" stop-opacity=".065"/><stop offset=".3724" stop-color="#fff" stop-opacity=".147"/><stop offset=".5008" stop-color="#fff" stop-opacity=".261"/><stop offset=".6304" stop-color="#fff" stop-opacity=".408"/><stop offset=".761" stop-color="#fff" stop-opacity=".588"/><stop offset=".8898" stop-color="#fff" stop-opacity=".797"/><stop offset="1" stop-color="#fff"/></linearGradient><linearGradient id="SVGID_00000070104089453372887140000009406021517868589981_" gradientTransform="matrix(1 0 0 -1 0 514)" gradientUnits="userSpaceOnUse" x1="172.95" x2="137.56" xlink:href="#lg4" y1="350.228" y2="384.486"/><linearGradient id="SVGID_00000176006497947458772410000009520630648179346328_" gradientTransform="matrix(1 0 0 -1 0 514)" gradientUnits="userSpaceOnUse" x1="260.417" x2="328.79" xlink:href="#lg3" y1="336.249" y2="328.18"/><linearGradient id="SVGID_00000178188226896363198710000002469585132215163009_" gradientTransform="matrix(1 0 0 -1 0 514)" gradientUnits="userSpaceOnUse" x1="226.004" x2="191.747" xlink:href="#lg4" y1="343.296" y2="361.415"/><linearGradient id="SVGID_00000114778406400966176730000012226894352528505784_" gradientTransform="matrix(1 0 0 -1 0 514)" gradientUnits="userSpaceOnUse" x1="161.58" x2="114.76" xlink:href="#lg3" y1="343.738" y2="358.767"/><linearGradient id="SVGID_00000065788444543782742440000000278004247499372953_" gradientTransform="matrix(1 0 0 -1 0 514)" gradientUnits="userSpaceOnUse" x1="278.303" x2="231.728" xlink:href="#lg3" y1="348.193" y2="369.104"/><linearGradient id="SVGID_00000153692799051543760370000017002432931964221615_" gradientTransform="matrix(1 0 0 -1 0 514)" gradientUnits="userSpaceOnUse" x1="398.503" x2="366.424" xlink:href="#lg3" y1="352.386" y2="386.96"/><linearGradient id="lg5"><stop offset="0" stop-color="#99e6fc"/><stop offset=".1572" stop-color="#94e3fc"/><stop offset=".3201" stop-color="#88dbfc"/><stop offset=".4856" stop-color="#73cdfc"/><stop offset=".6531" stop-color="#56bafc"/><stop offset=".8219" stop-color="#31a1fc"/><stop offset=".9897" stop-color="#0483fc"/><stop offset="1" stop-color="#0182fc"/></linearGradient><linearGradient id="SVGID_00000105407167612083316160000006008750174510211730_" gradientTransform="matrix(.906 .423 .423 -.906 -1103.072 700.385)" gradientUnits="userSpaceOnUse" x1="775.476" x2="815.874" xlink:href="#lg5" y1="1121.01" y2="1099.801"/><linearGradient id="lg6"><stop offset="0" stop-color="#0172fb" stop-opacity="0"/><stop offset=".1214" stop-color="#0172fb" stop-opacity=".017"/><stop offset=".2474" stop-color="#0172fb" stop-opacity=".066"/><stop offset=".3754" stop-color="#0172fb" stop-opacity=".149"/><stop offset=".5049" stop-color="#0172fb" stop-opacity=".265"/><stop offset=".6355" stop-color="#0172fb" stop-opacity=".414"/><stop offset=".7672" stop-color="#0172fb" stop-opacity=".598"/><stop offset=".897" stop-color="#0172fb" stop-opacity=".81"/><stop offset="1" stop-color="#0172fb"/></linearGradient><linearGradient id="SVGID_00000016076597195638567650000015370524364015741336_" gradientTransform="matrix(.906 .423 .423 -.906 -1103.072 700.385)" gradientUnits="userSpaceOnUse" x1="790.052" x2="821.361" xlink:href="#lg6" y1="1110.286" y2="1120.891"/><linearGradient id="lg7"><stop offset="0" stop-color="#0182fc" stop-opacity="0"/><stop offset=".1212" stop-color="#0383fc" stop-opacity=".017"/><stop offset=".2469" stop-color="#0b88fc" stop-opacity=".066"/><stop offset=".3746" stop-color="#1790fc" stop-opacity=".148"/><stop offset=".5039" stop-color="#299cfc" stop-opacity=".264"/><stop offset=".6342" stop-color="#3fabfc" stop-opacity=".413"/><stop offset=".7655" stop-color="#5bbdfc" stop-opacity=".595"/><stop offset=".8951" stop-color="#7bd2fc" stop-opacity=".806"/><stop offset="1" stop-color="#99e6fc"/></linearGradient><linearGradient id="SVGID_00000183211118421488988310000007785666594292604072_" gradientTransform="matrix(.906 .423 .423 -.906 -1103.072 700.385)" gradientUnits="userSpaceOnUse" x1="791.016" x2="812.809" xlink:href="#lg7" y1="1113.169" y2="1091.376"/><linearGradient id="SVGID_00000011739008835946695710000013529750516217620377_" gradientTransform="matrix(.906 .423 .423 -.906 -1103.072 700.385)" gradientUnits="userSpaceOnUse" x1="795.34" x2="789.785" xlink:href="#lg6" y1="1115.816" y2="1080.468"/><linearGradient id="SVGID_00000082326210003016635150000006149048978394970263_" gradientTransform="matrix(.906 .423 .423 -.906 -1091.454 647.978)" gradientUnits="userSpaceOnUse" x1="890.419" x2="930.817" xlink:href="#lg5" y1="1116.784" y2="1095.575"/><linearGradient id="SVGID_00000010301091242439831050000014286123968558815130_" gradientTransform="matrix(.906 .423 .423 -.906 -1091.454 647.978)" gradientUnits="userSpaceOnUse" x1="904.996" x2="936.304" xlink:href="#lg6" y1="1106.06" y2="1116.664"/><linearGradient id="SVGID_00000177486686604556508270000004726217545199585190_" gradientTransform="matrix(.906 .423 .423 -.906 -1091.454 647.978)" gradientUnits="userSpaceOnUse" x1="905.96" x2="927.753" xlink:href="#lg7" y1="1108.943" y2="1087.15"/><linearGradient id="SVGID_00000081643308632393664540000016573538537241242523_" gradientTransform="matrix(.906 .423 .423 -.906 -1091.454 647.978)" gradientUnits="userSpaceOnUse" x1="910.283" x2="904.729" xlink:href="#lg6" y1="1111.59" y2="1076.242"/><linearGradient id="SVGID_00000183933638933806251630000013777017050693411750_" gradientTransform="matrix(.906 .423 .423 -.906 -1079.835 595.57)" gradientUnits="userSpaceOnUse" x1="1005.363" x2="1045.761" xlink:href="#lg5" y1="1112.558" y2="1091.349"/><linearGradient id="SVGID_00000136403492885093094530000002772740200674971068_" gradientTransform="matrix(.906 .423 .423 -.906 -1079.835 595.57)" gradientUnits="userSpaceOnUse" x1="1019.939" x2="1051.248" xlink:href="#lg6" y1="1101.834" y2="1112.438"/><linearGradient id="SVGID_00000134241537520741251950000010511946449273987224_" gradientTransform="matrix(.906 .423 .423 -.906 -1079.835 595.57)" gradientUnits="userSpaceOnUse" x1="1020.903" x2="1042.696" xlink:href="#lg7" y1="1104.717" y2="1082.924"/><linearGradient id="SVGID_00000137842805872441632950000009400132846029913256_" gradientTransform="matrix(.906 .423 .423 -.906 -1079.835 595.57)" gradientUnits="userSpaceOnUse" x1="1025.227" x2="1019.672" xlink:href="#lg6" y1="1107.364" y2="1072.015"/><linearGradient id="SVGID_00000050621377286203650940000015478959050257372808_" gradientTransform="matrix(.906 .423 .423 -.906 -1068.217 543.163)" gradientUnits="userSpaceOnUse" x1="1120.307" x2="1160.705" xlink:href="#lg5" y1="1108.332" y2="1087.123"/><linearGradient id="SVGID_00000098187991755059380000000007348521345112047021_" gradientTransform="matrix(.906 .423 .423 -.906 -1068.217 543.163)" gradientUnits="userSpaceOnUse" x1="1134.883" x2="1166.191" xlink:href="#lg6" y1="1097.608" y2="1108.212"/><linearGradient id="SVGID_00000027584037065201305390000008004003118284895364_" gradientTransform="matrix(.906 .423 .423 -.906 -1068.217 543.163)" gradientUnits="userSpaceOnUse" x1="1135.847" x2="1157.64" xlink:href="#lg7" y1="1100.491" y2="1078.698"/><linearGradient id="SVGID_00000113352335721668767860000016844029776176597418_" gradientTransform="matrix(.906 .423 .423 -.906 -1068.217 543.163)" gradientUnits="userSpaceOnUse" x1="1140.171" x2="1134.616" xlink:href="#lg6" y1="1103.137" y2="1067.789"/><linearGradient id="SVGID_00000181774805207043830830000014622543247614195356_" gradientTransform="matrix(.906 .423 .423 -.906 -1059.496 688.294)" gradientUnits="userSpaceOnUse" x1="824.534" x2="864.932" xlink:href="#lg5" y1="1028.777" y2="1007.568"/><linearGradient id="SVGID_00000000906356983287678310000004178655522605382075_" gradientTransform="matrix(.906 .423 .423 -.906 -1059.496 688.294)" gradientUnits="userSpaceOnUse" x1="839.11" x2="870.418" xlink:href="#lg6" y1="1018.053" y2="1028.657"/><linearGradient id="SVGID_00000091711160528014581470000015872805871849290914_" gradientTransform="matrix(.906 .423 .423 -.906 -1059.496 688.294)" gradientUnits="userSpaceOnUse" x1="840.074" x2="861.867" xlink:href="#lg7" y1="1020.936" y2="999.143"/><linearGradient id="SVGID_00000150820210454896631580000017941800374836788668_" gradientTransform="matrix(.906 .423 .423 -.906 -1059.496 688.294)" gradientUnits="userSpaceOnUse" x1="844.398" x2="838.843" xlink:href="#lg6" y1="1023.583" y2="988.234"/><linearGradient id="SVGID_00000118386371959977182080000006898378993461253520_" gradientTransform="matrix(.906 .423 .423 -.906 -1047.878 635.887)" gradientUnits="userSpaceOnUse" x1="939.477" x2="979.875" xlink:href="#lg5" y1="1024.551" y2="1003.342"/><linearGradient id="SVGID_00000108298375281516858180000015696627356054827668_" gradientTransform="matrix(.906 .423 .423 -.906 -1047.878 635.887)" gradientUnits="userSpaceOnUse" x1="954.054" x2="985.362" xlink:href="#lg6" y1="1013.827" y2="1024.431"/><linearGradient id="SVGID_00000058552872141786705680000011739797742764876959_" gradientTransform="matrix(.906 .423 .423 -.906 -1047.878 635.887)" gradientUnits="userSpaceOnUse" x1="955.018" x2="976.81" xlink:href="#lg7" y1="1016.71" y2="994.917"/><linearGradient id="SVGID_00000165956980050998439420000014201906261809242267_" gradientTransform="matrix(.906 .423 .423 -.906 -1047.878 635.887)" gradientUnits="userSpaceOnUse" x1="959.341" x2="953.787" xlink:href="#lg6" y1="1019.356" y2="984.008"/><linearGradient id="SVGID_00000062905420822233105370000005243365362858880914_" gradientTransform="matrix(.906 .423 .423 -.906 -1036.259 583.479)" gradientUnits="userSpaceOnUse" x1="1054.421" x2="1094.819" xlink:href="#lg5" y1="1020.325" y2="999.116"/><linearGradient id="SVGID_00000103231023930150386440000006922127866264398001_" gradientTransform="matrix(.906 .423 .423 -.906 -1036.259 583.479)" gradientUnits="userSpaceOnUse" x1="1068.997" x2="1100.306" xlink:href="#lg6" y1="1009.601" y2="1020.205"/><linearGradient id="SVGID_00000004503689335840996240000010617249680021987977_" gradientTransform="matrix(.906 .423 .423 -.906 -1036.259 583.479)" gradientUnits="userSpaceOnUse" x1="1069.961" x2="1091.754" xlink:href="#lg7" y1="1012.483" y2="990.691"/><linearGradient id="SVGID_00000118381596712674691810000006206702894722021020_" gradientTransform="matrix(.906 .423 .423 -.906 -1036.259 583.479)" gradientUnits="userSpaceOnUse" x1="1074.285" x2="1068.73" xlink:href="#lg6" y1="1015.13" y2="979.782"/><g><g><path d="m268.9 85.9h-25.7l5.3-32.8c.6-3.7 3.8-6.4 7.5-6.4 3.7 0 6.9 2.7 7.5 6.4 0 0 5.4 32.8 5.4 32.8z" fill="url(#SVGID_1_)"/><path d="m231.5 506c-20.1 0-36.4-16.3-36.4-36.4v-29.2h23.8v29.2c0 6.9 5.6 12.6 12.6 12.6s12.6-5.6 12.6-12.6v-250.6h23.8v250.6c0 20.1-16.3 36.4-36.4 36.4z" fill="url(#SVGID_00000041991853145705642390000013540898397728818867_)"/><path d="m244.1 219h23.8v110h-23.8z" fill="url(#SVGID_00000150100136274420251630000005394769774840245669_)"/><path d="m273.9 417.7v51.1c0 23.2-18.2 42.7-41.4 43.2-23.8.5-43.4-18.7-43.4-42.4v-17.3c0-9.9 8-17.9 17.9-17.9 9.9 0 17.9 8 17.9 17.9v16.9c0 3.5 2.5 6.6 6 6.9 3.9.4 7.3-2.7 7.3-6.6v-51.9c0-1.8 1.4-3.2 3.2-3.2h29.3c1.7.1 3.2 1.5 3.2 3.3z" fill="url(#SVGID_00000085220734379151239940000003910472018242060705_)"/><path d="m273.9 417.7v51.1c0 23.2-18.2 42.7-41.4 43.2-23.8.5-43.4-18.7-43.4-42.4v-17.3c0-9.9 8-17.9 17.9-17.9 9.9 0 17.9 8 17.9 17.9v16.9c0 3.5 2.5 6.6 6 6.9 3.9.4 7.3-2.7 7.3-6.6v-51.9c0-1.8 1.4-3.2 3.2-3.2h29.3c1.7.1 3.2 1.5 3.2 3.3z" fill="url(#SVGID_00000028317590300465759170000017200729908749424266_)"/><path d="m273.9 417.7v51.1c0 23.2-18.2 42.7-41.4 43.2-23.8.5-43.4-18.7-43.4-42.4v-17.3c0-9.9 8-17.9 17.9-17.9 9.9 0 17.9 8 17.9 17.9v16.9c0 3.5 2.5 6.6 6 6.9 3.9.4 7.3-2.7 7.3-6.6v-51.9c0-1.8 1.4-3.2 3.2-3.2h29.3c1.7.1 3.2 1.5 3.2 3.3z" fill="url(#SVGID_00000139980312527720847320000009939213483657580469_)"/><g><path d="m476.5 264.1c.5 3.3-3 5.7-5.9 4.1-7.7-4.4-16.7-7-26.3-7-11 0-21.2 3.3-29.6 9-10.5 7.1-24.4 7.1-34.9 0-8.5-5.7-18.6-9-29.6-9s-21.2 3.3-29.6 9c-10.5 7.1-24.4 7.1-34.9 0-8.5-5.7-18.6-9-29.6-9s-21.1 3.3-29.6 9c-10.5 7.1-24.4 7.1-34.9 0-8.5-5.7-18.6-9-29.6-9s-21.1 3.3-29.6 9c-10.5 7.1-24.4 7.1-34.9 0-8.5-5.7-18.6-9-29.6-9-9.6 0-18.5 2.5-26.3 7-2.9 1.6-6.4-.8-5.9-4.1 15.4-107.9 108.1-190.8 220.3-190.8s204.9 82.9 220.5 190.8z" fill="url(#SVGID_00000038374677951148295600000013870463703939906722_)"/><path d="m470.6 268.1c-7.7-4.4-16.7-7-26.3-7-11 0-21.2 3.3-29.6 9-6.2 4.2-13.7 5.9-20.9 5.1 2.1.2 4.3.2 6.5 0-6.8-112.4-67.8-200.6-142.5-202 111.4.9 203.3 83.4 218.7 190.7.4 3.5-3 5.9-5.9 4.2z" fill="url(#SVGID_00000167374176187905426460000004860613161788377249_)"/><path d="m470.6 268.1c-7.7-4.4-16.7-7-26.3-7-11 0-21.2 3.3-29.6 9-10.5 7.1-24.4 7.1-34.9 0-8.5-5.7-18.6-9-29.6-9s-21.2 3.3-29.6 9c-10.5 7.1-24.4 7.1-34.9 0-8.5-5.7-18.6-9-29.6-9s-21.1 3.3-29.6 9c-10.5 7.1-24.4 7.1-34.9 0-8.5-5.7-18.7-9-29.6-9s-21.1 3.3-29.6 9c-10.5 7.1-24.4 7.1-34.9 0-8.5-5.7-18.7-9-29.6-9-9.6 0-18.5 2.5-26.3 7-2.9 1.6-6.4-.8-5.9-4.1 5.4-37.8 20.3-72.5 42.2-101.6h356.5c21.9 29.2 36.8 63.9 42.2 101.6.3 3.4-3.1 5.8-6 4.1z" fill="url(#SVGID_00000122679180889482374040000010568169860621114268_)"/><g><path d="m256 73.3c25.6 0 46.7 88.8 49 202.1 5.5-.3 10.8-2.1 15.5-5.2 8.5-5.7 18.6-9 29.6-9s21.2 3.3 29.6 9c6.1 4.1 13.4 5.8 20.5 5.1-6.7-113.3-68.7-202-144.2-202z" fill="url(#SVGID_00000163066340853290936900000001930538155900150679_)"/><path d="m254.2 73.3c-74.7 1.4-135.8 89.6-142.5 202 2.2.2 4.3.2 6.5 0-7.2.8-14.7-.9-20.9-5.1-8.5-5.7-18.7-9-29.6-9-9.6 0-18.5 2.5-26.3 7-2.9 1.6-6.4-.8-5.9-4.1 15.5-107.3 107.4-189.9 218.7-190.8z" fill="url(#SVGID_00000062182356498521506410000005256702087736218815_)"/><path d="m256 73.3c25.6 0 46.7 88.8 49 202.1 5.5-.3 10.8-2.1 15.5-5.2 8.5-5.7 18.6-9 29.6-9s21.2 3.3 29.6 9c6.1 4.1 13.4 5.8 20.5 5.1-6.7-113.3-68.7-202-144.2-202z" fill="url(#SVGID_00000163066340853290936900000001930538155900150679_)"/><path d="m111.7 275.3c7.1.7 14.4-1 20.5-5.1 8.5-5.7 18.6-9 29.6-9s21.2 3.3 29.6 9c4.7 3.2 10.1 4.9 15.5 5.2 2.3-113.3 23.4-202.1 49-202.1-75.4 0-137.4 88.7-144.2 202z" fill="url(#SVGID_00000163045689832327201310000005301230835074649527_)"/><path d="m111.7 275.3c7.1.7 14.4-1 20.5-5.1 8.5-5.7 18.6-9 29.6-9s21.2 3.3 29.6 9c4.7 3.2 10.1 4.9 15.5 5.2 2.3-113.3 23.4-202.1 49-202.1-75.4 0-137.4 88.7-144.2 202z" fill="url(#SVGID_00000070104089453372887140000009406021517868589981_)"/><path d="m256 73.3c-25.6 0-46.7 88.8-49 202.1 6.7.4 13.6-1.3 19.4-5.2 8.5-5.7 18.6-9 29.6-9s21.2 3.3 29.6 9c5.8 3.9 12.7 5.6 19.4 5.2-2.3-113.3-23.4-202.1-49-202.1z" fill="url(#SVGID_00000176006497947458772410000009520630648179346328_)"/><path d="m256 73.3c-25.6 0-46.7 88.8-49 202.1 6.7.4 13.6-1.3 19.4-5.2 8.5-5.7 18.6-9 29.6-9s21.2 3.3 29.6 9c5.8 3.9 12.7 5.6 19.4 5.2-2.3-113.3-23.4-202.1-49-202.1z" fill="url(#SVGID_00000178188226896363198710000002469585132215163009_)"/></g></g></g><path d="m323.7 268.2-170-170-37.3 44.6 121.6 121.5c5.6-2 11.7-3.1 18-3.1 11 0 21.2 3.3 29.6 9 10.5 7.1 24.4 7.1 34.9 0 1.1-.7 2.1-1.4 3.2-2z" fill="url(#SVGID_00000114778406400966176730000012226894352528505784_)"/><path d="m432.2 262.6-165.8-165.8-37 45 119.5 119.5h1.3c11 0 21.2 3.3 29.6 9 10.5 7.1 24.4 7.1 34.9 0 5.2-3.6 11.2-6.3 17.5-7.7z" fill="url(#SVGID_00000065788444543782742440000000278004247499372953_)"/><path d="m470.6 268.1c2.9 1.6 6.4-.8 5.9-4.1-9.3-64.6-46.4-120.3-98.7-154.5l-33.3 33.3 124.4 124.4c.5.3 1.1.6 1.7.9z" fill="url(#SVGID_00000153692799051543760370000017002432931964221615_)"/><g><g><path d="m107.2 42.9c-5.9 12.5-20.7 18-33.2 12.1s-17.9-20.7-12.1-33.2 24.6-26.3 37.1-20.4 14 29 8.2 41.5z" fill="url(#SVGID_00000105407167612083316160000006008750174510211730_)"/><path d="m107.2 42.9c-5.9 12.5-20.7 18-33.2 12.1s-17.9-20.7-12.1-33.2 24.6-26.3 37.1-20.4 14 29 8.2 41.5z" fill="url(#SVGID_00000016076597195638567650000015370524364015741336_)"/><path d="m107.2 42.9c-5.9 12.5-20.7 18-33.2 12.1s-17.9-20.7-12.1-33.2 24.6-26.3 37.1-20.4 14 29 8.2 41.5z" fill="url(#SVGID_00000183211118421488988310000007785666594292604072_)"/><path d="m61.9 21.8c-5.8 12.5-.4 27.4 12.1 33.2s27.4.4 33.2-12.1c2-4.2 3.1-9.6 3.2-15.2l-39-18.2c-4.1 3.8-7.6 8.1-9.5 12.3z" fill="url(#SVGID_00000011739008835946695710000013529750516217620377_)"/></g><g><path d="m221.2 42.9c-5.9 12.5-20.7 18-33.2 12.1s-17.9-20.7-12.1-33.2 24.6-26.3 37.1-20.4c12.5 5.8 14 29 8.2 41.5z" fill="url(#SVGID_00000082326210003016635150000006149048978394970263_)"/><path d="m221.2 42.9c-5.9 12.5-20.7 18-33.2 12.1s-17.9-20.7-12.1-33.2 24.6-26.3 37.1-20.4c12.5 5.8 14 29 8.2 41.5z" fill="url(#SVGID_00000010301091242439831050000014286123968558815130_)"/><path d="m221.2 42.9c-5.9 12.5-20.7 18-33.2 12.1s-17.9-20.7-12.1-33.2 24.6-26.3 37.1-20.4c12.5 5.8 14 29 8.2 41.5z" fill="url(#SVGID_00000177486686604556508270000004726217545199585190_)"/><path d="m175.9 21.8c-5.8 12.5-.4 27.4 12.1 33.2s27.4.4 33.2-12.1c2-4.2 3.1-9.6 3.2-15.2l-39-18.2c-4.1 3.8-7.5 8.1-9.5 12.3z" fill="url(#SVGID_00000081643308632393664540000016573538537241242523_)"/></g><g><path d="m335.2 42.9c-5.9 12.5-20.7 18-33.2 12.1s-17.9-20.7-12.1-33.2 24.6-26.3 37.1-20.4 14 29 8.2 41.5z" fill="url(#SVGID_00000183933638933806251630000013777017050693411750_)"/><path d="m335.2 42.9c-5.9 12.5-20.7 18-33.2 12.1s-17.9-20.7-12.1-33.2 24.6-26.3 37.1-20.4 14 29 8.2 41.5z" fill="url(#SVGID_00000136403492885093094530000002772740200674971068_)"/><path d="m335.2 42.9c-5.9 12.5-20.7 18-33.2 12.1s-17.9-20.7-12.1-33.2 24.6-26.3 37.1-20.4 14 29 8.2 41.5z" fill="url(#SVGID_00000134241537520741251950000010511946449273987224_)"/><path d="m289.9 21.8c-5.8 12.5-.4 27.4 12.1 33.2s27.4.4 33.2-12.1c2-4.2 3.1-9.6 3.2-15.2l-39-18.2c-4.1 3.8-7.5 8.1-9.5 12.3z" fill="url(#SVGID_00000137842805872441632950000009400132846029913256_)"/></g><g><path d="m449.2 42.9c-5.8 12.5-20.7 18-33.2 12.1s-17.9-20.7-12.1-33.2 24.6-26.3 37.1-20.4 14 29 8.2 41.5z" fill="url(#SVGID_00000050621377286203650940000015478959050257372808_)"/><path d="m449.2 42.9c-5.8 12.5-20.7 18-33.2 12.1s-17.9-20.7-12.1-33.2 24.6-26.3 37.1-20.4 14 29 8.2 41.5z" fill="url(#SVGID_00000098187991755059380000000007348521345112047021_)"/><path d="m449.2 42.9c-5.8 12.5-20.7 18-33.2 12.1s-17.9-20.7-12.1-33.2 24.6-26.3 37.1-20.4 14 29 8.2 41.5z" fill="url(#SVGID_00000027584037065201305390000008004003118284895364_)"/><path d="m403.9 21.8c-5.8 12.5-.4 27.4 12.1 33.2s27.4.4 33.2-12.1c2-4.2 3.1-9.6 3.2-15.2l-39-18.2c-4.1 3.8-7.5 8.1-9.5 12.3z" fill="url(#SVGID_00000113352335721668767860000016844029776176597418_)"/></g><g><path d="m156.2 135.2c-5.8 12.5-20.7 17.9-33.2 12.1s-17.9-20.7-12.1-33.2 24.6-26.3 37.1-20.5 14 29.1 8.2 41.6z" fill="url(#SVGID_00000181774805207043830830000014622543247614195356_)"/><path d="m156.2 135.2c-5.8 12.5-20.7 17.9-33.2 12.1s-17.9-20.7-12.1-33.2 24.6-26.3 37.1-20.5 14 29.1 8.2 41.6z" fill="url(#SVGID_00000000906356983287678310000004178655522605382075_)"/><path d="m156.2 135.2c-5.8 12.5-20.7 17.9-33.2 12.1s-17.9-20.7-12.1-33.2 24.6-26.3 37.1-20.5 14 29.1 8.2 41.6z" fill="url(#SVGID_00000091711160528014581470000015872805871849290914_)"/><path d="m110.9 114.1c-5.8 12.5-.4 27.4 12.1 33.2s27.4.4 33.2-12.1c2-4.2 3.1-9.6 3.2-15.2l-39-18.2c-4.1 3.7-7.5 8.1-9.5 12.3z" fill="url(#SVGID_00000150820210454896631580000017941800374836788668_)"/></g><g><path d="m270.2 135.2c-5.8 12.5-20.7 17.9-33.2 12.1s-17.9-20.7-12.1-33.2 24.6-26.3 37.1-20.5c12.6 5.8 14.1 29.1 8.2 41.6z" fill="url(#SVGID_00000118386371959977182080000006898378993461253520_)"/><path d="m270.2 135.2c-5.8 12.5-20.7 17.9-33.2 12.1s-17.9-20.7-12.1-33.2 24.6-26.3 37.1-20.5c12.6 5.8 14.1 29.1 8.2 41.6z" fill="url(#SVGID_00000108298375281516858180000015696627356054827668_)"/><path d="m270.2 135.2c-5.8 12.5-20.7 17.9-33.2 12.1s-17.9-20.7-12.1-33.2 24.6-26.3 37.1-20.5c12.6 5.8 14.1 29.1 8.2 41.6z" fill="url(#SVGID_00000058552872141786705680000011739797742764876959_)"/><path d="m225 114.1c-5.8 12.5-.4 27.4 12.1 33.2s27.4.4 33.2-12.1c2-4.2 3.1-9.6 3.2-15.2l-39-18.2c-4.2 3.7-7.6 8.1-9.5 12.3z" fill="url(#SVGID_00000165956980050998439420000014201906261809242267_)"/></g><g><path d="m384.2 135.2c-5.8 12.5-20.7 17.9-33.2 12.1s-17.9-20.7-12.1-33.2 24.6-26.3 37.1-20.5 14.1 29.1 8.2 41.6z" fill="url(#SVGID_00000062905420822233105370000005243365362858880914_)"/><path d="m384.2 135.2c-5.8 12.5-20.7 17.9-33.2 12.1s-17.9-20.7-12.1-33.2 24.6-26.3 37.1-20.5 14.1 29.1 8.2 41.6z" fill="url(#SVGID_00000103231023930150386440000006922127866264398001_)"/><path d="m384.2 135.2c-5.8 12.5-20.7 17.9-33.2 12.1s-17.9-20.7-12.1-33.2 24.6-26.3 37.1-20.5 14.1 29.1 8.2 41.6z" fill="url(#SVGID_00000004503689335840996240000010617249680021987977_)"/><path d="m339 114.1c-5.8 12.5-.4 27.4 12.1 33.2s27.4.4 33.2-12.1c2-4.2 3.1-9.6 3.2-15.2l-39-18.2c-4.2 3.7-7.6 8.1-9.5 12.3z" fill="url(#SVGID_00000118381596712674691810000006206702894722021020_)"/></g></g></g></svg>